<svg width="478" height="478" viewBox="0 0 478 478" fill="none" xmlns="http://www.w3.org/2000/svg">
<g opacity="0.7">
<path d="M477.165 222.438C477.415 226.091 477.583 229.767 477.667 233.463L477.266 233.472C477.307 235.31 477.328 237.152 477.328 239C477.328 240.848 477.307 242.69 477.266 244.528L477.667 244.537C477.583 248.233 477.415 251.909 477.165 255.562L476.765 255.534C476.513 259.215 476.178 262.873 475.761 266.506L476.16 266.551C475.739 270.221 475.235 273.866 474.649 277.483L474.253 277.419C473.664 281.058 472.993 284.67 472.242 288.252L472.635 288.334C471.877 291.947 471.038 295.529 470.119 299.08L469.731 298.979C468.808 302.547 467.804 306.081 466.722 309.582L467.106 309.7C466.016 313.225 464.847 316.716 463.601 320.17L463.224 320.033C461.974 323.497 460.646 326.924 459.243 330.311L459.614 330.464C458.202 333.871 456.714 337.237 455.152 340.562L454.789 340.391C453.224 343.722 451.585 347.01 449.873 350.254L450.228 350.442C448.508 353.701 446.715 356.915 444.851 360.083L444.505 359.879C442.64 363.049 440.703 366.172 438.698 369.245L439.034 369.465C437.022 372.549 434.94 375.585 432.792 378.569L432.466 378.334C430.318 381.317 428.102 384.248 425.822 387.126L426.136 387.375C423.85 390.261 421.498 393.092 419.083 395.867L418.781 395.603C416.368 398.375 413.893 401.091 411.358 403.748L411.648 404.025C409.107 406.688 406.506 409.291 403.846 411.834L403.568 411.544C400.913 414.082 398.2 416.56 395.43 418.974L395.693 419.277C392.92 421.694 390.091 424.048 387.208 426.337L386.958 426.022C384.082 428.305 381.153 430.523 378.172 432.673L378.406 432.999C375.424 435.15 372.391 437.234 369.307 439.249L369.088 438.913C366.016 440.921 362.894 442.859 359.726 444.727L359.93 445.072C356.764 446.939 353.55 448.734 350.293 450.456L350.105 450.101C346.862 451.816 343.575 453.458 340.246 455.025L340.416 455.388C337.093 456.952 333.727 458.442 330.321 459.855L330.168 459.485C326.781 460.89 323.356 462.22 319.893 463.471L320.029 463.849C316.576 465.097 313.086 466.268 309.561 467.359L309.443 466.975C305.943 468.059 302.409 469.064 298.842 469.988L298.943 470.377C295.393 471.297 291.81 472.138 288.198 472.897L288.115 472.504C284.534 473.257 280.922 473.929 277.284 474.518L277.348 474.915C273.73 475.501 270.086 476.006 266.416 476.427L266.37 476.029C262.737 476.446 259.08 476.782 255.399 477.034L255.426 477.435C251.773 477.685 248.098 477.853 244.402 477.937L244.393 477.536C242.555 477.578 240.712 477.599 238.865 477.599C237.017 477.599 235.175 477.578 233.337 477.536L233.328 477.937C229.632 477.853 225.956 477.685 222.303 477.435L222.331 477.034C218.65 476.782 214.992 476.446 211.359 476.029L211.314 476.427C207.644 476.006 203.999 475.501 200.382 474.915L200.446 474.518C196.807 473.929 193.196 473.257 189.614 472.504L189.532 472.897C185.919 472.138 182.337 471.297 178.787 470.377L178.888 469.988C175.321 469.064 171.787 468.059 168.287 466.975L168.168 467.359C164.644 466.268 161.154 465.097 157.701 463.849L157.837 463.471C154.374 462.22 150.948 460.89 147.562 459.485L147.408 459.855C144.003 458.442 140.637 456.952 137.313 455.388L137.484 455.025C134.155 453.458 130.868 451.816 127.625 450.101L127.437 450.456C124.179 448.734 120.966 446.939 117.8 445.073L118.004 444.727C114.835 442.859 111.714 440.921 108.642 438.913L108.422 439.249C105.339 437.234 102.305 435.15 99.3234 432.999L99.5582 432.673C96.5769 430.523 93.6473 428.305 90.7716 426.022L90.522 426.337C87.6386 424.048 84.8094 421.694 82.0364 419.277L82.3001 418.974C79.5302 416.56 76.8165 414.082 74.1613 411.544L73.884 411.834C71.2239 409.291 68.6224 406.688 66.0818 404.026L66.3722 403.748C63.8364 401.091 61.3613 398.375 58.9491 395.603L58.6463 395.867C56.2316 393.092 53.8799 390.261 51.5933 387.375L51.9079 387.126C49.6275 384.248 47.4121 381.317 45.2639 378.334L44.9381 378.569C42.7894 375.585 40.7077 372.549 38.6954 369.465L39.0315 369.245C37.0263 366.172 35.0901 363.049 33.2249 359.879L32.879 360.083C31.0151 356.915 29.2221 353.701 27.5022 350.442L27.8572 350.254C26.1451 347.01 24.5055 343.722 22.9407 340.391L22.5774 340.562C21.0153 337.237 19.5274 333.871 18.1161 330.464L18.4869 330.311C17.0835 326.924 15.7558 323.497 14.506 320.033L14.1285 320.17C12.8823 316.716 11.7134 313.225 10.6238 309.7L11.0073 309.582C9.92551 306.081 8.92206 302.547 7.99902 298.979L7.61044 299.08C6.69165 295.529 5.85238 291.947 5.09465 288.334L5.48748 288.252C4.73621 284.67 4.06522 281.058 3.4765 277.419L3.08027 277.483C2.49505 273.866 1.99097 270.221 1.56998 266.551L1.96874 266.506C1.55198 262.873 1.21677 259.215 0.964983 255.534L0.564543 255.562C0.314659 251.909 0.146814 248.233 0.0628368 244.537L0.464109 244.528C0.422362 242.69 0.401376 240.848 0.401376 239C0.401376 237.152 0.422362 235.31 0.464108 233.472L0.0628357 233.463C0.146812 229.767 0.314657 226.091 0.564541 222.438L0.964981 222.466C1.21676 218.785 1.55197 215.127 1.96873 211.494L1.56997 211.449C1.99097 207.779 2.49504 204.134 3.08026 200.517L3.47649 200.581C4.06521 196.942 4.7362 193.33 5.48747 189.748L5.09464 189.666C5.85237 186.053 6.69164 182.471 7.61043 178.92L7.99901 179.021C8.92206 175.453 9.92551 171.919 11.0073 168.418L10.6238 168.3C11.7134 164.775 12.8823 161.284 14.1285 157.83L14.506 157.967C15.7558 154.503 17.0835 151.076 18.4869 147.689L18.116 147.536C19.5274 144.129 21.0153 140.763 22.5774 137.438L22.9407 137.609C24.5055 134.278 26.1451 130.99 27.8572 127.746L27.5022 127.558C29.2221 124.299 31.0151 121.085 32.879 117.917L33.2249 118.121C35.09 114.951 37.0263 111.828 39.0315 108.755L38.6953 108.535C40.7077 105.451 42.7894 102.415 44.9381 99.4315L45.2638 99.666C47.4121 96.6829 49.6275 93.7515 51.9079 90.874L51.5933 90.6247C53.8799 87.7394 56.2316 84.9081 58.6463 82.1332L58.9491 82.3966C61.3613 79.6246 63.8364 76.9089 66.3722 74.2516L66.0818 73.9745C68.6224 71.3122 71.2239 68.7085 73.8839 66.1657L74.1613 66.4559C76.8165 63.9178 79.5301 61.4404 82.3001 59.026L82.0363 58.7234C84.8093 56.3063 87.6386 53.9522 90.522 51.6634L90.7715 51.9777C93.6473 49.6949 96.5769 47.4771 99.5582 45.3265L99.3233 45.001C102.305 42.8498 105.339 40.7657 108.422 38.751L108.642 39.087C111.714 37.0794 114.835 35.1407 118.004 33.2733L117.8 32.9275C120.966 31.0612 124.179 29.2659 127.437 27.5438L127.625 27.8986C130.868 26.1842 134.155 24.5424 137.484 22.9754L137.313 22.6123C140.637 21.0479 144.003 19.558 147.408 18.1446L147.562 18.5153C150.948 17.1099 154.374 15.7803 157.837 14.5286L157.701 14.1511C161.154 12.9031 164.644 11.7323 168.168 10.6411L168.287 11.0245C171.787 9.94105 175.321 8.93605 178.888 8.01155L178.787 7.62302C182.337 6.70275 185.919 5.86212 189.532 5.10316L189.614 5.49596C193.196 4.74345 196.807 4.07136 200.446 3.48167L200.382 3.08546C203.999 2.49926 207.644 1.99434 211.314 1.57263L211.359 1.97139C214.992 1.55392 218.65 1.21815 222.331 0.965938L222.303 0.565501C225.956 0.315193 229.632 0.147063 233.328 0.0629432L233.337 0.464215C235.175 0.422398 237.017 0.401376 238.865 0.401376C240.712 0.401376 242.555 0.422398 244.392 0.464215L244.402 0.0629429C248.098 0.147062 251.773 0.315192 255.426 0.565499L255.399 0.965936C259.08 1.21814 262.737 1.55392 266.37 1.97138L266.416 1.57263C270.086 1.99434 273.73 2.49926 277.348 3.08546L277.284 3.48167C280.922 4.07136 284.534 4.74345 288.115 5.49596L288.198 5.10316C291.81 5.86212 295.393 6.70275 298.943 7.62302L298.842 8.01156C302.409 8.93605 305.943 9.94106 309.443 11.0245L309.561 10.6411C313.086 11.7323 316.576 12.9031 320.029 14.1511L319.893 14.5286C323.356 15.7803 326.781 17.1099 330.168 18.5153L330.321 18.1446C333.727 19.558 337.093 21.0479 340.416 22.6123L340.245 22.9754C343.575 24.5424 346.862 26.1842 350.105 27.8986L350.293 27.5438C353.55 29.2659 356.763 31.0612 359.93 32.9275L359.726 33.2733C362.894 35.1407 366.016 37.0794 369.088 39.087L369.307 38.751C372.391 40.7657 375.424 42.8498 378.406 45.001L378.172 45.3265C381.153 47.4771 384.082 49.6949 386.958 51.9777L387.208 51.6633C390.091 53.9522 392.92 56.3063 395.693 58.7234L395.43 59.026C398.2 61.4404 400.913 63.9177 403.568 66.4559L403.846 66.1657C406.506 68.7085 409.107 71.3122 411.648 73.9745L411.358 74.2516C413.893 76.9088 416.368 79.6246 418.781 82.3966L419.083 82.1331C421.498 84.9081 423.85 87.7393 426.136 90.6247L425.822 90.874C428.102 93.7515 430.318 96.6829 432.466 99.666L432.792 99.4315C434.94 102.415 437.022 105.451 439.034 108.535L438.698 108.755C440.703 111.828 442.64 114.951 444.505 118.121L444.851 117.917C446.715 121.085 448.508 124.299 450.228 127.558L449.873 127.746C451.585 130.99 453.224 134.278 454.789 137.609L455.152 137.438C456.714 140.763 458.202 144.129 459.614 147.536L459.243 147.689C460.646 151.076 461.974 154.503 463.224 157.967L463.601 157.83C464.847 161.284 466.016 164.775 467.106 168.3L466.722 168.418C467.804 171.919 468.808 175.453 469.731 179.021L470.119 178.92C471.038 182.471 471.877 186.053 472.635 189.666L472.242 189.748C472.993 193.33 473.664 196.942 474.253 200.581L474.649 200.517C475.235 204.134 475.739 207.779 476.16 211.449L475.761 211.494C476.178 215.127 476.513 218.785 476.765 222.466L477.165 222.438Z" stroke="#C4C4C4" stroke-width="0.802752" stroke-dasharray="11.24 11.24"/>
<path d="M401.109 221.081C401.518 224.925 401.793 228.809 401.93 232.728L401.529 232.742C401.597 234.679 401.632 236.625 401.632 238.579C401.632 240.533 401.597 242.479 401.529 244.416L401.93 244.43C401.793 248.349 401.518 252.233 401.109 256.078L400.71 256.035C400.297 259.925 399.747 263.774 399.066 267.578L399.461 267.648C398.771 271.501 397.946 275.306 396.992 279.06L396.603 278.961C395.641 282.745 394.546 286.476 393.326 290.149L393.706 290.275C392.474 293.984 391.112 297.634 389.626 301.219L389.255 301.066C387.764 304.666 386.147 308.201 384.411 311.665L384.77 311.845C383.021 315.335 381.151 318.753 379.166 322.095L378.821 321.89C376.833 325.236 374.729 328.504 372.515 331.69L372.845 331.919C370.62 335.121 368.283 338.239 365.841 341.269L365.528 341.017C363.088 344.043 360.543 346.981 357.897 349.824L358.191 350.098C355.537 352.949 352.783 355.706 349.933 358.362L349.66 358.068C346.819 360.716 343.883 363.265 340.859 365.707L341.111 366.019C338.084 368.464 334.967 370.803 331.767 373.031L331.538 372.701C328.354 374.918 325.087 377.025 321.742 379.015L321.948 379.36C318.607 381.347 315.19 383.22 311.702 384.971L311.522 384.612C308.058 386.351 304.524 387.969 300.925 389.463L301.079 389.834C297.495 391.322 293.846 392.686 290.138 393.92L290.011 393.539C286.338 394.762 282.608 395.858 278.825 396.822L278.924 397.211C275.171 398.167 271.365 398.993 267.513 399.684L267.442 399.289C263.639 399.971 259.79 400.522 255.9 400.936L255.943 401.335C252.099 401.744 248.215 402.02 244.296 402.158L244.282 401.757C242.344 401.825 240.398 401.859 238.444 401.859C236.49 401.859 234.544 401.825 232.607 401.757L232.593 402.158C228.674 402.02 224.79 401.744 220.946 401.335L220.988 400.936C217.098 400.522 213.25 399.971 209.446 399.289L209.375 399.684C205.523 398.993 201.718 398.167 197.964 397.211L198.064 396.822C194.28 395.858 190.55 394.762 186.878 393.539L186.751 393.92C183.043 392.686 179.394 391.322 175.809 389.834L175.963 389.463C172.364 387.969 168.83 386.351 165.366 384.612L165.186 384.971C161.698 383.22 158.281 381.347 154.941 379.36L155.146 379.015C151.802 377.025 148.535 374.918 145.351 372.701L145.121 373.031C141.921 370.803 138.805 368.464 135.777 366.019L136.03 365.707C133.005 363.265 130.07 360.716 127.229 358.068L126.955 358.362C124.106 355.706 121.352 352.949 118.698 350.098L118.992 349.824C116.346 346.981 113.8 344.043 111.36 341.017L111.048 341.269C108.605 338.239 106.269 335.121 104.044 331.919L104.373 331.69C102.159 328.504 100.055 325.236 98.0676 321.89L97.7225 322.095C95.7373 318.753 93.8676 315.335 92.1189 311.845L92.4777 311.665C90.7415 308.201 89.1248 304.666 87.6332 301.066L87.2624 301.219C85.7769 297.634 84.415 293.984 83.1821 290.275L83.563 290.149C82.3421 286.476 81.248 282.745 80.2859 278.961L79.8969 279.06C78.9425 275.306 78.1176 271.501 77.4275 267.648L77.8226 267.578C77.1413 263.774 76.5916 259.925 76.1784 256.035L75.7793 256.077C75.371 252.233 75.0957 248.349 74.9581 244.43L75.3592 244.416C75.2911 242.479 75.2568 240.533 75.2568 238.579C75.2568 236.625 75.2911 234.679 75.3592 232.742L74.9581 232.728C75.0957 228.809 75.371 224.925 75.7793 221.081L76.1784 221.123C76.5916 217.233 77.1413 213.384 77.8226 209.58L77.4276 209.51C78.1176 205.657 78.9425 201.852 79.8969 198.098L80.2859 198.197C81.248 194.413 82.3421 190.682 83.563 187.009L83.1821 186.883C84.415 183.174 85.7769 179.524 87.2624 175.939L87.6332 176.093C89.1249 172.492 90.7415 168.957 92.4777 165.493L92.1189 165.313C93.8676 161.823 95.7373 158.405 97.7225 155.063L98.0676 155.268C100.055 151.922 102.159 148.654 104.373 145.468L104.044 145.239C106.269 142.037 108.605 138.919 111.048 135.889L111.36 136.141C113.8 133.115 116.346 130.177 118.992 127.334L118.698 127.061C121.352 124.209 124.106 121.452 126.955 118.796L127.229 119.09C130.07 116.442 133.005 113.893 136.03 111.451L135.777 111.139C138.805 108.694 141.921 106.355 145.121 104.127L145.351 104.457C148.535 102.24 151.802 100.133 155.146 98.1434L154.941 97.7984C158.281 95.8107 161.698 93.9385 165.186 92.1875L165.366 92.5462C168.83 90.8075 172.364 89.1886 175.963 87.6949L175.809 87.3242C179.394 85.8364 183.043 84.4725 186.751 83.2378L186.878 83.6187C190.55 82.3958 194.28 81.3 198.064 80.3364L197.964 79.9475C201.718 78.9915 205.523 78.1653 209.375 77.4741L209.446 77.8692C213.25 77.1867 217.099 76.6361 220.988 76.2222L220.946 75.8231C224.79 75.4141 228.674 75.1383 232.593 75.0005L232.607 75.4016C234.544 75.3334 236.49 75.2991 238.444 75.2991C240.398 75.2991 242.344 75.3334 244.282 75.4016L244.296 75.0005C248.215 75.1383 252.099 75.4141 255.943 75.8231L255.9 76.2222C259.79 76.6361 263.639 77.1867 267.442 77.8692L267.513 77.4741C271.365 78.1653 275.171 78.9915 278.924 79.9475L278.825 80.3364C282.608 81.3 286.339 82.3958 290.011 83.6187L290.138 83.2379C293.846 84.4726 297.495 85.8365 301.079 87.3242L300.925 87.6949C304.524 89.1887 308.058 90.8076 311.522 92.5462L311.702 92.1875C315.19 93.9385 318.607 95.8107 321.948 97.7985L321.742 98.1434C325.087 100.133 328.354 102.24 331.538 104.457L331.767 104.127C334.967 106.355 338.084 108.694 341.111 111.139L340.859 111.451C343.883 113.893 346.819 116.442 349.66 119.09L349.934 118.796C352.783 121.452 355.537 124.209 358.191 127.061L357.897 127.334C360.543 130.177 363.088 133.115 365.528 136.141L365.841 135.889C368.283 138.919 370.62 142.037 372.845 145.239L372.515 145.468C374.73 148.654 376.833 151.923 378.821 155.268L379.166 155.063C381.151 158.405 383.021 161.823 384.77 165.313L384.411 165.493C386.147 168.957 387.764 172.493 389.255 176.093L389.626 175.939C391.112 179.524 392.474 183.174 393.706 186.883L393.326 187.009C394.546 190.682 395.641 194.413 396.603 198.197L396.992 198.098C397.946 201.852 398.771 205.657 399.461 209.51L399.066 209.58C399.747 213.384 400.297 217.233 400.71 221.123L401.109 221.081Z" stroke="#C4C4C4" stroke-width="0.802752" stroke-dasharray="11.24 11.24"/>
<path opacity="0.5" d="M333.447 226.006C334.045 229.555 334.451 233.169 334.654 236.838L334.253 236.86C334.353 238.657 334.403 240.467 334.403 242.288C334.403 244.11 334.353 245.92 334.253 247.717L334.654 247.739C334.451 251.407 334.045 255.022 333.447 258.571L333.051 258.504C332.445 262.102 331.639 265.633 330.647 269.085L331.033 269.196C330.023 272.71 328.821 276.142 327.438 279.48L327.067 279.326C325.676 282.684 324.101 285.947 322.355 289.101L322.707 289.296C320.942 292.484 319.004 295.563 316.904 298.519L316.577 298.287C314.478 301.241 312.218 304.073 309.81 306.769L310.109 307.037C307.687 309.747 305.115 312.321 302.407 314.745L302.14 314.446C299.445 316.857 296.616 319.119 293.663 321.22L293.895 321.547C290.941 323.649 287.863 325.59 284.676 327.356L284.482 327.005C281.328 328.753 278.067 330.33 274.71 331.723L274.864 332.094C271.526 333.479 268.095 334.684 264.582 335.695L264.471 335.309C261.019 336.303 257.489 337.109 253.891 337.717L253.957 338.113C250.409 338.712 246.794 339.119 243.126 339.322L243.104 338.921C241.307 339.02 239.497 339.071 237.675 339.071C235.853 339.071 234.044 339.02 232.247 338.921L232.225 339.322C228.556 339.119 224.942 338.712 221.393 338.113L221.46 337.717C217.862 337.109 214.331 336.303 210.88 335.309L210.768 335.695C207.255 334.684 203.824 333.479 200.486 332.094L200.64 331.723C197.284 330.33 194.022 328.753 190.869 327.005L190.674 327.356C187.487 325.59 184.41 323.649 181.455 321.547L181.688 321.22C178.735 319.119 175.905 316.857 173.211 314.446L172.943 314.745C170.235 312.321 167.663 309.747 165.242 307.037L165.541 306.769C163.132 304.073 160.872 301.241 158.773 298.287L158.446 298.519C156.347 295.563 154.408 292.484 152.644 289.296L152.995 289.101C151.249 285.947 149.675 282.684 148.283 279.327L147.913 279.48C146.53 276.142 145.327 272.71 144.317 269.196L144.703 269.085C143.711 265.633 142.906 262.102 142.299 258.504L141.903 258.571C141.305 255.022 140.899 251.407 140.696 247.739L141.097 247.717C140.998 245.92 140.948 244.11 140.948 242.288C140.948 240.467 140.998 238.657 141.097 236.86L140.696 236.838C140.899 233.169 141.305 229.555 141.903 226.006L142.299 226.073C142.906 222.474 143.711 218.943 144.703 215.491L144.317 215.38C145.327 211.867 146.529 208.435 147.913 205.096L148.283 205.25C149.675 201.892 151.249 198.63 152.995 195.475L152.644 195.281C154.408 192.092 156.347 189.014 158.446 186.057L158.773 186.29C160.872 183.335 163.132 180.503 165.541 177.807L165.242 177.54C167.663 174.829 170.235 172.256 172.943 169.832L173.211 170.131C175.905 167.72 178.735 165.457 181.688 163.357L181.455 163.029C184.41 160.927 187.487 158.987 190.674 157.22L190.869 157.571C194.022 155.823 197.284 154.246 200.64 152.853L200.486 152.482C203.824 151.097 207.255 149.893 210.768 148.881L210.88 149.267C214.331 148.274 217.862 147.467 221.46 146.86L221.393 146.464C224.942 145.864 228.556 145.458 232.225 145.255L232.247 145.655C234.044 145.556 235.853 145.506 237.675 145.506C239.497 145.506 241.307 145.556 243.104 145.655L243.126 145.255C246.794 145.458 250.409 145.864 253.957 146.464L253.891 146.86C257.489 147.467 261.019 148.274 264.471 149.267L264.582 148.881C268.095 149.893 271.526 151.097 274.864 152.482L274.71 152.853C278.067 154.246 281.328 155.823 284.482 157.571L284.676 157.22C287.863 158.987 290.941 160.927 293.895 163.029L293.663 163.357C296.616 165.457 299.445 167.72 302.14 170.131L302.407 169.832C305.115 172.256 307.687 174.829 310.109 177.54L309.81 177.807C312.218 180.503 314.478 183.335 316.577 186.29L316.904 186.057C319.004 189.014 320.942 192.092 322.707 195.281L322.355 195.475C324.101 198.63 325.676 201.892 327.067 205.25L327.438 205.096C328.821 208.435 330.023 211.867 331.033 215.38L330.647 215.491C331.639 218.943 332.445 222.474 333.051 226.073L333.447 226.006Z" stroke="#C4C4C4" stroke-width="0.802752" stroke-dasharray="11.24 11.24"/>
</g>
</svg>
