<svg width="88" height="112" viewBox="0 0 88 112" fill="none" xmlns="http://www.w3.org/2000/svg">
<circle cx="86.5806" cy="109.913" r="1.37842" transform="rotate(180 86.5806 109.913)" fill="#13C296"/>
<circle cx="86.5806" cy="97.7829" r="1.37842" transform="rotate(180 86.5806 97.7829)" fill="#13C296"/>
<circle cx="86.5806" cy="85.6529" r="1.37842" transform="rotate(180 86.5806 85.6529)" fill="#13C296"/>
<circle cx="86.5806" cy="73.5228" r="1.37842" transform="rotate(180 86.5806 73.5228)" fill="#13C296"/>
<circle cx="86.5806" cy="61.3928" r="1.37842" transform="rotate(180 86.5806 61.3928)" fill="#13C296"/>
<circle cx="86.5806" cy="37.9597" r="1.37842" transform="rotate(180 86.5806 37.9597)" fill="#13C296"/>
<circle cx="86.5806" cy="13.9753" r="1.37842" transform="rotate(180 86.5806 13.9753)" fill="#13C296"/>
<circle cx="86.5806" cy="49.5384" r="1.37842" transform="rotate(180 86.5806 49.5384)" fill="#13C296"/>
<circle cx="86.5806" cy="26.1054" r="1.37842" transform="rotate(180 86.5806 26.1054)" fill="#13C296"/>
<circle cx="86.5806" cy="2.12091" r="1.37842" transform="rotate(180 86.5806 2.12091)" fill="#13C296"/>
<circle cx="74.4507" cy="109.913" r="1.37842" transform="rotate(180 74.4507 109.913)" fill="#13C296"/>
<circle cx="74.4507" cy="97.7829" r="1.37842" transform="rotate(180 74.4507 97.7829)" fill="#13C296"/>
<circle cx="74.4507" cy="85.6529" r="1.37842" transform="rotate(180 74.4507 85.6529)" fill="#13C296"/>
<circle cx="74.4507" cy="73.5228" r="1.37842" transform="rotate(180 74.4507 73.5228)" fill="#13C296"/>
<circle cx="74.4507" cy="61.3928" r="1.37842" transform="rotate(180 74.4507 61.3928)" fill="#13C296"/>
<circle cx="74.4507" cy="37.9597" r="1.37842" transform="rotate(180 74.4507 37.9597)" fill="#13C296"/>
<circle cx="74.4507" cy="13.9753" r="1.37842" transform="rotate(180 74.4507 13.9753)" fill="#13C296"/>
<circle cx="74.4507" cy="49.5384" r="1.37842" transform="rotate(180 74.4507 49.5384)" fill="#13C296"/>
<circle cx="74.4507" cy="26.1054" r="1.37842" transform="rotate(180 74.4507 26.1054)" fill="#13C296"/>
<circle cx="74.4507" cy="2.12091" r="1.37842" transform="rotate(180 74.4507 2.12091)" fill="#13C296"/>
<circle cx="62.3208" cy="109.913" r="1.37842" transform="rotate(180 62.3208 109.913)" fill="#13C296"/>
<circle cx="26.2065" cy="109.913" r="1.37842" transform="rotate(180 26.2065 109.913)" fill="#13C296"/>
<circle cx="62.3208" cy="97.7829" r="1.37842" transform="rotate(180 62.3208 97.7829)" fill="#13C296"/>
<circle cx="26.2065" cy="97.7829" r="1.37842" transform="rotate(180 26.2065 97.7829)" fill="#13C296"/>
<circle cx="62.3208" cy="85.6529" r="1.37842" transform="rotate(180 62.3208 85.6529)" fill="#13C296"/>
<circle cx="26.2065" cy="85.6529" r="1.37842" transform="rotate(180 26.2065 85.6529)" fill="#13C296"/>
<circle cx="62.3208" cy="73.5228" r="1.37842" transform="rotate(180 62.3208 73.5228)" fill="#13C296"/>
<circle cx="26.2065" cy="73.5228" r="1.37842" transform="rotate(180 26.2065 73.5228)" fill="#13C296"/>
<circle cx="62.3198" cy="61.3928" r="1.37842" transform="rotate(180 62.3198 61.3928)" fill="#13C296"/>
<circle cx="26.2065" cy="61.3928" r="1.37842" transform="rotate(180 26.2065 61.3928)" fill="#13C296"/>
<circle cx="62.3198" cy="37.9597" r="1.37842" transform="rotate(180 62.3198 37.9597)" fill="#13C296"/>
<circle cx="26.2065" cy="37.9597" r="1.37842" transform="rotate(180 26.2065 37.9597)" fill="#13C296"/>
<circle cx="62.3198" cy="13.9753" r="1.37842" transform="rotate(180 62.3198 13.9753)" fill="#13C296"/>
<circle cx="26.2065" cy="13.9753" r="1.37842" transform="rotate(180 26.2065 13.9753)" fill="#13C296"/>
<circle cx="62.3198" cy="49.5384" r="1.37842" transform="rotate(180 62.3198 49.5384)" fill="#13C296"/>
<circle cx="26.2065" cy="49.5384" r="1.37842" transform="rotate(180 26.2065 49.5384)" fill="#13C296"/>
<circle cx="62.3198" cy="26.1054" r="1.37842" transform="rotate(180 62.3198 26.1054)" fill="#13C296"/>
<circle cx="26.2065" cy="26.1054" r="1.37842" transform="rotate(180 26.2065 26.1054)" fill="#13C296"/>
<circle cx="62.3198" cy="2.12091" r="1.37842" transform="rotate(180 62.3198 2.12091)" fill="#13C296"/>
<circle cx="26.2065" cy="2.12091" r="1.37842" transform="rotate(180 26.2065 2.12091)" fill="#13C296"/>
<circle cx="50.1909" cy="109.913" r="1.37842" transform="rotate(180 50.1909 109.913)" fill="#13C296"/>
<circle cx="14.0757" cy="109.913" r="1.37842" transform="rotate(180 14.0757 109.913)" fill="#13C296"/>
<circle cx="50.1909" cy="97.7829" r="1.37842" transform="rotate(180 50.1909 97.7829)" fill="#13C296"/>
<circle cx="14.0757" cy="97.7829" r="1.37842" transform="rotate(180 14.0757 97.7829)" fill="#13C296"/>
<circle cx="50.1909" cy="85.6529" r="1.37842" transform="rotate(180 50.1909 85.6529)" fill="#13C296"/>
<circle cx="14.0757" cy="85.6529" r="1.37842" transform="rotate(180 14.0757 85.6529)" fill="#13C296"/>
<circle cx="50.1909" cy="73.5228" r="1.37842" transform="rotate(180 50.1909 73.5228)" fill="#13C296"/>
<circle cx="14.0757" cy="73.5228" r="1.37842" transform="rotate(180 14.0757 73.5228)" fill="#13C296"/>
<circle cx="50.1909" cy="61.3928" r="1.37842" transform="rotate(180 50.1909 61.3928)" fill="#13C296"/>
<circle cx="14.0757" cy="61.3928" r="1.37842" transform="rotate(180 14.0757 61.3928)" fill="#13C296"/>
<circle cx="50.1909" cy="37.9597" r="1.37842" transform="rotate(180 50.1909 37.9597)" fill="#13C296"/>
<circle cx="14.0757" cy="37.9597" r="1.37842" transform="rotate(180 14.0757 37.9597)" fill="#13C296"/>
<circle cx="50.1909" cy="13.9753" r="1.37842" transform="rotate(180 50.1909 13.9753)" fill="#13C296"/>
<circle cx="14.0757" cy="13.9753" r="1.37842" transform="rotate(180 14.0757 13.9753)" fill="#13C296"/>
<circle cx="50.1909" cy="49.5384" r="1.37842" transform="rotate(180 50.1909 49.5384)" fill="#13C296"/>
<circle cx="14.0757" cy="49.5384" r="1.37842" transform="rotate(180 14.0757 49.5384)" fill="#13C296"/>
<circle cx="50.1909" cy="26.1054" r="1.37842" transform="rotate(180 50.1909 26.1054)" fill="#13C296"/>
<circle cx="14.0757" cy="26.1054" r="1.37842" transform="rotate(180 14.0757 26.1054)" fill="#13C296"/>
<circle cx="50.1909" cy="2.12091" r="1.37842" transform="rotate(180 50.1909 2.12091)" fill="#13C296"/>
<circle cx="14.0757" cy="2.12091" r="1.37842" transform="rotate(180 14.0757 2.12091)" fill="#13C296"/>
<circle cx="38.0601" cy="109.913" r="1.37842" transform="rotate(180 38.0601 109.913)" fill="#13C296"/>
<circle cx="1.94678" cy="109.913" r="1.37842" transform="rotate(180 1.94678 109.913)" fill="#13C296"/>
<circle cx="38.0601" cy="97.7829" r="1.37842" transform="rotate(180 38.0601 97.7829)" fill="#13C296"/>
<circle cx="1.9458" cy="97.7829" r="1.37842" transform="rotate(180 1.9458 97.7829)" fill="#13C296"/>
<circle cx="38.0601" cy="85.6529" r="1.37842" transform="rotate(180 38.0601 85.6529)" fill="#13C296"/>
<circle cx="1.9458" cy="85.6529" r="1.37842" transform="rotate(180 1.9458 85.6529)" fill="#13C296"/>
<circle cx="38.0601" cy="73.5228" r="1.37842" transform="rotate(180 38.0601 73.5228)" fill="#13C296"/>
<circle cx="1.9458" cy="73.5228" r="1.37842" transform="rotate(180 1.9458 73.5228)" fill="#13C296"/>
<circle cx="38.0601" cy="61.3928" r="1.37842" transform="rotate(180 38.0601 61.3928)" fill="#13C296"/>
<circle cx="1.94678" cy="61.3928" r="1.37842" transform="rotate(180 1.94678 61.3928)" fill="#13C296"/>
<circle cx="38.0601" cy="37.9597" r="1.37842" transform="rotate(180 38.0601 37.9597)" fill="#13C296"/>
<circle cx="1.94678" cy="37.9597" r="1.37842" transform="rotate(180 1.94678 37.9597)" fill="#13C296"/>
<circle cx="38.0601" cy="13.9753" r="1.37842" transform="rotate(180 38.0601 13.9753)" fill="#13C296"/>
<circle cx="1.94678" cy="13.9753" r="1.37842" transform="rotate(180 1.94678 13.9753)" fill="#13C296"/>
<circle cx="38.0601" cy="49.5384" r="1.37842" transform="rotate(180 38.0601 49.5384)" fill="#13C296"/>
<circle cx="1.94678" cy="49.5384" r="1.37842" transform="rotate(180 1.94678 49.5384)" fill="#13C296"/>
<circle cx="38.0601" cy="26.1054" r="1.37842" transform="rotate(180 38.0601 26.1054)" fill="#13C296"/>
<circle cx="1.94678" cy="26.1054" r="1.37842" transform="rotate(180 1.94678 26.1054)" fill="#13C296"/>
<circle cx="38.0601" cy="2.12091" r="1.37842" transform="rotate(180 38.0601 2.12091)" fill="#13C296"/>
<circle cx="1.94678" cy="2.12091" r="1.37842" transform="rotate(180 1.94678 2.12091)" fill="#13C296"/>
</svg>
