<svg width="48" height="50" viewBox="0 0 48 50" fill="none" xmlns="http://www.w3.org/2000/svg">
<g filter="url(#filter0_d_23_11)">
<circle cx="24" cy="24" r="17" fill="url(#paint0_linear_23_11)"/>
</g>
<path d="M26.0619 2.52001C31.7043 3.19313 36.7693 6.00179 40.3244 10.4269L40.1124 10.5933C32.8687 1.57341 19.6393 -0.00481154 10.6196 7.07497C6.25029 10.5046 3.50897 15.4303 2.90079 20.9436C2.29262 26.4568 3.88995 31.9016 7.3991 36.2697L7.18722 36.436C3.6323 32.0095 2.01511 26.4958 2.63128 20.9101C3.24744 15.3244 6.02467 10.3349 10.4498 6.86033C14.8745 3.38842 20.4194 1.84689 26.0619 2.52001Z" fill="#a1ff8b"/>
<path d="M25.9024 3.9676C30.9405 4.56863 35.7679 7.06766 39.1839 11.3213L38.972 11.4877C32.2341 3.09757 19.9261 1.62927 11.5349 8.21451C3.14492 14.8 1.80072 26.9855 8.53866 35.3757L8.32667 35.542C1.49462 27.0346 2.85747 14.6801 11.3647 8.00124C15.6181 4.66387 20.8656 3.36674 25.9024 3.9676Z" fill="#a1ff8b"/>
<path d="M25.7447 5.39736C30.6107 5.97786 34.9784 8.40021 38.0445 12.2167L37.8326 12.3831C34.8124 8.62231 30.5093 6.23751 25.7165 5.66575C20.9223 5.09383 16.2114 6.40467 12.4524 9.35533C8.69184 12.3071 6.33366 16.546 5.81027 21.2907C5.28674 26.0366 6.66187 30.721 9.68083 34.4802L9.46884 34.6465C6.40407 30.8302 5.0081 26.074 5.53947 21.257C6.07085 16.44 8.46609 12.1375 12.2824 9.14069C16.097 6.14774 20.8787 4.81687 25.7447 5.39736Z" fill="#a1ff8b"/>
<path d="M25.5853 6.84523C29.8781 7.35734 33.9924 9.48724 36.9039 13.1126L36.692 13.279C30.9632 6.14536 20.4994 4.89708 13.3661 10.4963C6.23265 16.0955 5.08998 26.454 10.8189 33.5876L10.6069 33.7539C4.78389 26.5031 5.94534 15.9743 13.1958 10.2843C16.8212 7.43878 21.2925 6.33311 25.5853 6.84523Z" fill="#a1ff8b"/>
<path d="M25.4266 8.2828C29.3467 8.75046 33.1054 10.6951 35.7646 14.0065L35.5527 14.1728C30.3284 7.66743 20.7875 6.52924 14.2838 11.6355C7.77859 16.7416 6.73671 26.1865 11.9611 32.6905L11.7492 32.8568C6.432 26.2358 7.49283 16.6191 14.1136 11.4222C17.4219 8.82417 21.5064 7.81514 25.4266 8.2828Z" fill="#a1ff8b"/>
<path d="M25.2672 9.72108C28.8161 10.1444 32.2174 11.9052 34.6231 14.9009L34.4112 15.0672C29.6927 9.19166 21.0732 8.16338 15.1978 12.7751C12.3511 15.0096 10.5651 18.2188 10.1689 21.8111C9.77259 25.4034 10.8133 28.9497 13.0995 31.7965L12.8877 31.9629C10.5554 29.0603 9.49508 25.4423 9.8992 21.7789C10.3033 18.1155 12.1253 14.8414 15.0277 12.5632C18.0232 10.2119 21.7183 9.29771 25.2672 9.72108Z" fill="#a1ff8b"/>
<path d="M25.109 11.1589C28.2853 11.5378 31.3296 13.1133 33.4842 15.7962L33.2723 15.9626C29.0583 10.7153 21.3616 9.79716 16.1146 13.9158C10.8675 18.0343 10.027 25.6537 14.241 30.9009L14.029 31.0672C9.72088 25.7027 10.5802 17.9131 15.9445 13.7025C18.6245 11.5989 21.9328 10.78 25.109 11.1589Z" fill="#a1ff8b"/>
<defs>
<filter id="filter0_d_23_11" x="0" y="2" width="48" height="48" filterUnits="userSpaceOnUse" color-interpolation-filters="sRGB">
<feFlood flood-opacity="0" result="BackgroundImageFix"/>
<feColorMatrix in="SourceAlpha" type="matrix" values="0 0 0 0 0 0 0 0 0 0 0 0 0 0 0 0 0 0 127 0" result="hardAlpha"/>
<feMorphology radius="2" operator="dilate" in="SourceAlpha" result="effect1_dropShadow_23_11"/>
<feOffset dy="2"/>
<feGaussianBlur stdDeviation="2.5"/>
<feComposite in2="hardAlpha" operator="out"/>
<feColorMatrix type="matrix" values="0 0 0 0 0.356863 0 0 0 0 0.737255 0 0 0 0 0.917647 0 0 0 0.34 0"/>
<feBlend mode="normal" in2="BackgroundImageFix" result="effect1_dropShadow_23_11"/>
<feBlend mode="normal" in="SourceGraphic" in2="effect1_dropShadow_23_11" result="shape"/>
</filter>
<linearGradient id="paint0_linear_23_11" x1="37" y1="31.5" x2="-14.5" y2="1.5" gradientUnits="userSpaceOnUse">
<stop stop-color="#a1ff8b"/>
<stop offset="1" stop-color="rgba(131,204,255,1)"/>
</linearGradient>
</defs>
</svg>
