<svg xmlns="http://www.w3.org/2000/svg" width="907.467" height="809.72" viewBox="0 0 907.467 809.72"><g id="Basic_Islamic_education_and_Daily_Supplications_duas_2" data-name="Basic Islamic education and Daily Supplications (duas) 2" transform="translate(-31.828 -90.12)"><g id="Group_1693" data-name="Group 1693" transform="translate(40.012 356.223)" opacity="0.4"><g id="Group_1692" data-name="Group 1692"><path id="Path_8931" data-name="Path 8931" d="M70.327,316.6s-13.393-56.4-17.883-79.359l-3.4.6s9.762,65.491,10.776,80.6Z" transform="translate(-21.816 -200.721)" fill="#fcd2a4"></path><path id="Path_8932" data-name="Path 8932" d="M54.266,233.866a1.937,1.937,0,0,1,.991-.477c.366-.025.679.3.436.551a22.977,22.977,0,0,1,11.083-7.117,6.2,6.2,0,0,1,3.5-.263,1.348,1.348,0,0,1,.658,2.294A6.264,6.264,0,0,1,76.3,228.7c.232.121.463.3.418.541-.039.224-.294.407-.535.555a11.48,11.48,0,0,1-3.061,1.3,6.536,6.536,0,0,1,2.333-.078c-.109,1.177-1.88,1.952-3.33,2.411q-2.487.787-4.97,1.572a1.155,1.155,0,0,1,1.372.045,11.554,11.554,0,0,1-5.519,2.384,1.064,1.064,0,0,1,1.185-.109.6.6,0,0,1-.068.94,2.292,2.292,0,0,1-.658.339l-5.28,2.049.72.525A22.446,22.446,0,0,1,54.733,244c-4.124,2.172-6.973,1.228-5.928-2.382A15.29,15.29,0,0,1,54.266,233.866Z" transform="translate(-22.298 -212.182)" fill="#fcd2a4"></path><path id="Path_8933" data-name="Path 8933" d="M71.1,237.431c.3.09.59.187.88.288.65.224,1.347.514,1.52.973a.5.5,0,0,1-.259.59c-.06.027-.562.146-.35-.066.378-.378,1.386.152,1.81.405a5.294,5.294,0,0,1,2.839,3.855.535.535,0,0,1-.189.535,1.432,1.432,0,0,1-.73.167,6.335,6.335,0,0,1-1.7-.171c.555.136.782,1.393.893,1.7.2.56.463,1.117.156,1.685a1.357,1.357,0,0,1-1.035.64,2.924,2.924,0,0,1-2.026-.734l-1.72-1.269c.1.234.191.467.288.7.13.315.237.691-.107.924a1.665,1.665,0,0,1-1.514-.082c-.432-.234-.708-.568-1.117-.817.175.173-.136.405-.453.395a1.38,1.38,0,0,1-.786-.323,2.786,2.786,0,0,1-1.275-2.238,2.259,2.259,0,0,1-.905,1.026c-1.158.619-2.524-.374-3.186-.95a7.707,7.707,0,0,0-2.17-1.631c.216.206-.138.49-.518.492a1.729,1.729,0,0,1-.975-.354,4.363,4.363,0,0,1-1.339-1.38,1.479,1.479,0,0,1,.051,1.072,1.241,1.241,0,0,1-1.247.557,1.955,1.955,0,0,1-.712-.282,15.548,15.548,0,0,1-2.931-2.37c-1.142-1.1-2.316-2.244-2.567-3.542A2.66,2.66,0,0,1,52,234.245a23.783,23.783,0,0,1,3.672.064c.971-.025,1.866-.241,2.861-.251a25.22,25.22,0,0,1,7.952,1.2c.335.109.722.3.631.529-.043.117-.2.2-.358.263a6.247,6.247,0,0,1-1.553.422A19.329,19.329,0,0,1,71.1,237.431Z" transform="translate(-21.134 -204.09)" fill="#fcd2a4"></path><path id="Path_8934" data-name="Path 8934" d="M61.789,235.791a3.549,3.549,0,0,0-2.676-1.345c-.216.362-.019.815.461,1.063-.095-.049-.171-.582-.243-.693a2.635,2.635,0,0,0-.693-.7,5.134,5.134,0,0,0-2.224-.843,5.733,5.733,0,0,0-1.273-.035c-.631.047-.549.064-1.02-.214a11.535,11.535,0,0,0-3.079-1.15,1.987,1.987,0,0,0-1.417.043.446.446,0,0,0-.095.669,2.388,2.388,0,0,0,.712.553,20.518,20.518,0,0,0-4.459-.86,10.33,10.33,0,0,0-4.443.592c-.144.06-.3.156-.241.261.047.082.2.113.333.132l1.047.152a9.876,9.876,0,0,0-3.445.689c-1,.344-2.063.778-2.355,1.485a.438.438,0,0,0-.006.389,1.156,1.156,0,0,0,.656.383,6.853,6.853,0,0,0,2.164.29,8.843,8.843,0,0,0-2.522.767c-.718.385-1.228.969-1.156,1.576a.612.612,0,0,0,.2.4,1.512,1.512,0,0,0,.492.23,9.468,9.468,0,0,0,3.746.284,26.188,26.188,0,0,0,3.622-.718,2.954,2.954,0,0,0-1.31.792,5.861,5.861,0,0,0,2.882-.049,1.649,1.649,0,0,0-.566.469.379.379,0,0,0,.183.555,1.352,1.352,0,0,0,.45.107,9.755,9.755,0,0,0,4.739-1.047.491.491,0,0,0-.125.938,2.882,2.882,0,0,0,1.639.267,6.533,6.533,0,0,0,2.544-.685.263.263,0,0,0-.144.459,1.415,1.415,0,0,0,.706.274,5.209,5.209,0,0,0,3.314-.49c-.152.07-.128.232,0,.323a1.241,1.241,0,0,0,.512.156,12.01,12.01,0,0,0,2.018.125c.9-.021,2.172-.167,2.736.395.469.467.673,1.088,1.148,1.574C66.919,241.538,63.272,237.442,61.789,235.791Z" transform="translate(-35.807 -206.512)" fill="#fcd2a4"></path><path id="Path_8935" data-name="Path 8935" d="M45.334,234.773a2.173,2.173,0,0,1,.72-1.79c.559-.366,1.545.173,1.273.784a12.887,12.887,0,0,1,1.059-4.836c.547-1.265,1.43-3.233,2.674-3.925a.318.318,0,0,1,.185-.053c.107.016.167.13.2.23a2.485,2.485,0,0,1,.023,1.606,2.022,2.022,0,0,1,.448-1.061A16.839,16.839,0,0,1,55.7,221.8a16.023,16.023,0,0,1,2.131-1.273,5.543,5.543,0,0,1,2.588-1.039c.251.28.029.716-.2,1.012a32.812,32.812,0,0,1-2.547,2.9,15.587,15.587,0,0,1,2.606-2.209,5.225,5.225,0,0,1,3.246-.874.819.819,0,0,1,.652.309.776.776,0,0,1,.043.566,5.145,5.145,0,0,1-1.6,2.376c-.979.987-1.962,1.971-2.939,2.958-.5.51-1.744,1.705-1.765,2.429a9.56,9.56,0,0,1,1.637-.436.975.975,0,0,1,.463.014c.428.144.508.722.4,1.16a5.477,5.477,0,0,1-2.489,2.857l-1.572,1.113a8.885,8.885,0,0,1,1.292-.732.749.749,0,0,1,.658-.072c.313.173.237.646.068.958a9.165,9.165,0,0,1-1.785,2.016,13.2,13.2,0,0,0-2.789,4.075,4.546,4.546,0,0,1,1.968-1.8.45.45,0,0,1,.387-.047.412.412,0,0,1,.16.4,3.787,3.787,0,0,1-.917,1.851,6.611,6.611,0,0,0-1.232,4.219c.107,1.312.909,2.89.193,4.155a2.4,2.4,0,0,1-4.073.259c-1.251-1.508-1.847-3.8-2.754-5.521A16.647,16.647,0,0,1,45.334,234.773Z" transform="translate(-25.753 -219.488)" fill="#fcd2a4"></path><path id="Path_8936" data-name="Path 8936" d="M45.686,239.286a2.174,2.174,0,0,0-1.115,1.576c0,.671.987,1.205,1.351.644a12.888,12.888,0,0,0-3.487,3.515c-.767,1.146-1.94,2.956-1.845,4.375a.317.317,0,0,0,.056.185.311.311,0,0,0,.3.045,2.489,2.489,0,0,0,1.362-.852,2.031,2.031,0,0,0-.65.952,16.851,16.851,0,0,0-1.247,5.307,15.8,15.8,0,0,0,.086,2.479,5.554,5.554,0,0,0,.533,2.74c.37.058.615-.366.738-.72a32.692,32.692,0,0,0,1.059-3.715,15.627,15.627,0,0,0-.442,3.388,5.234,5.234,0,0,0,1.028,3.2.835.835,0,0,0,.615.381.775.775,0,0,0,.5-.272,5.15,5.15,0,0,0,1.127-2.633c.3-1.358.588-2.715.889-4.073.156-.7.485-2.39,1.084-2.8a9.453,9.453,0,0,0,.52,1.613,1.012,1.012,0,0,0,.263.381c.354.28.882.035,1.193-.292a5.494,5.494,0,0,0,1.047-3.641q.04-.963.082-1.923a8.933,8.933,0,0,0,.086,1.481.752.752,0,0,0,.3.592c.315.167.669-.152.841-.465a9.182,9.182,0,0,0,.722-2.594,13.177,13.177,0,0,1,1.909-4.554,4.556,4.556,0,0,0-.442,2.629.455.455,0,0,0,.171.352.415.415,0,0,0,.422-.08,3.783,3.783,0,0,0,1.055-1.775,6.6,6.6,0,0,1,2.876-3.326c1.16-.623,2.921-.806,3.593-2.094a2.4,2.4,0,0,0-1.993-3.561c-1.944-.232-4.188.51-6.132.683A16.637,16.637,0,0,0,45.686,239.286Z" transform="translate(-30.958 -202.347)" fill="#fcd2a4"></path></g></g><g id="Group_1695" data-name="Group 1695" transform="translate(617.359 251.486)" opacity="0.4"><g id="Group_1694" data-name="Group 1694"><path id="Path_8937" data-name="Path 8937" d="M330.115,370.733s18.84-118.052,24.533-165.95l7.082.7s-9.968,136.18-9.723,167.415Z" transform="translate(-302.085 -130.294)" fill="#fcd2a4"></path><path id="Path_8938" data-name="Path 8938" d="M363.693,196.773a4,4,0,0,0-2.112-.831c-.759,0-1.349.716-.812,1.2-5.918-6.214-14.639-10.933-23.887-12.924-2.474-.533-5.181-.86-7.232,0s-2.863,3.33-1,4.815c-3.725-1.489-8.205-1.284-11.064.508-.457.286-.905.687-.776,1.179.117.453.671.792,1.187,1.057a23.513,23.513,0,0,0,6.494,2.191,13.511,13.511,0,0,0-4.807.2c.405,2.4,4.163,3.721,7.218,4.441l10.464,2.466a2.383,2.383,0,0,0-2.816.3,23.838,23.838,0,0,0,11.716,4.05,2.2,2.2,0,0,0-2.454-.039,1.229,1.229,0,0,0,.286,1.919,4.674,4.674,0,0,0,1.4.6q5.588,1.7,11.173,3.4l-1.4,1.189a46.094,46.094,0,0,0,9.018,5.177c8.816,3.83,14.528,1.45,11.823-5.811A31.552,31.552,0,0,0,363.693,196.773Z" transform="translate(-316.173 -152.588)" fill="#fcd2a4"></path><path id="Path_8939" data-name="Path 8939" d="M328.8,207.957q-.895.355-1.765.73c-1.3.559-2.693,1.267-2.978,2.236a1.032,1.032,0,0,0,.625,1.172c.128.045,1.177.214.71-.187-.837-.72-2.83.529-3.661,1.111-3.283,2.3-5.21,5.377-5.241,8.366a1.1,1.1,0,0,0,.471,1.07,2.932,2.932,0,0,0,1.526.23,13.07,13.07,0,0,0,3.474-.613c-1.123.364-1.395,2.983-1.572,3.643-.317,1.179-.784,2.363-.064,3.487a2.8,2.8,0,0,0,2.224,1.154,6.023,6.023,0,0,0,4.056-1.822q1.669-1.438,3.341-2.871c-.163.494-.323.987-.485,1.481-.218.666-.38,1.458.36,1.88a3.435,3.435,0,0,0,3.106-.4c.85-.549,1.366-1.273,2.17-1.851-.335.383.339.813.989.745a2.845,2.845,0,0,0,1.567-.788,5.73,5.73,0,0,0,2.273-4.795,4.68,4.68,0,0,0,2.022,1.969c2.477,1.094,5.134-1.16,6.405-2.448s2.331-2.742,4.208-3.686c-.409.457.362.985,1.146.93a3.608,3.608,0,0,0,1.95-.876,9.107,9.107,0,0,0,2.542-3.044,3.011,3.011,0,0,0,.058,2.207,2.557,2.557,0,0,0,2.649.954,4.029,4.029,0,0,0,1.421-.687,31.926,31.926,0,0,0,5.659-5.325c2.18-2.429,4.418-4.974,4.735-7.679a5.493,5.493,0,0,0-5.136-5.786c-2.594-.257-4.986.574-7.541.7-2,.1-3.873-.208-5.92-.076a51.963,51.963,0,0,0-16.17,3.692c-.673.276-1.438.726-1.218,1.187.109.232.448.374.78.485a13.207,13.207,0,0,0,3.258.629A39.9,39.9,0,0,0,328.8,207.957Z" transform="translate(-316.488 -137.031)" fill="#fcd2a4"></path><path id="Path_8940" data-name="Path 8940" d="M349.444,202.368a7.308,7.308,0,0,1,5.295-3.18c.5.712.165,1.67-.784,2.254.187-.113.263-1.22.391-1.46a5.454,5.454,0,0,1,1.321-1.549,10.583,10.583,0,0,1,4.441-2.08,11.98,11.98,0,0,1,2.612-.265c1.306,0,1.14.045,2.063-.6a23.852,23.852,0,0,1,6.154-2.839,4.105,4.105,0,0,1,2.923-.13.92.92,0,0,1,.3,1.36,4.907,4.907,0,0,1-1.376,1.247,42.219,42.219,0,0,1,9.038-2.456,21.259,21.259,0,0,1,9.229.535c.3.1.64.274.533.5-.084.177-.395.263-.664.323l-2.131.473a20.378,20.378,0,0,1,7.189.887c2.108.553,4.365,1.279,5.074,2.69a.9.9,0,0,1,.072.8,2.359,2.359,0,0,1-1.288.889,14.055,14.055,0,0,1-4.406.934,18.041,18.041,0,0,1,5.3,1.187c1.534.683,2.674,1.8,2.618,3.063a1.229,1.229,0,0,1-.358.858,3.017,3.017,0,0,1-.973.551,19.573,19.573,0,0,1-7.66,1.16,53.625,53.625,0,0,1-7.557-.917,6.135,6.135,0,0,1,2.816,1.425,12.057,12.057,0,0,1-5.932.344,3.42,3.42,0,0,1,1.234.88.785.785,0,0,1-.29,1.17,2.8,2.8,0,0,1-.909.286c-3.487.629-6.883-.407-9.91-1.419a1.012,1.012,0,0,1,.4,1.911,5.932,5.932,0,0,1-3.33.8,13.415,13.415,0,0,1-5.338-1.014.541.541,0,0,1,.366.919,2.862,2.862,0,0,1-1.407.673,10.748,10.748,0,0,1-6.891-.5c.325.119.3.459.045.666a2.552,2.552,0,0,1-1.026.4,24.578,24.578,0,0,1-4.132.572c-1.849.1-4.494-.01-5.566,1.234-.891,1.033-1.216,2.341-2.115,3.412C339.78,214.975,346.646,205.992,349.444,202.368Z" transform="translate(-288.443 -143.491)" fill="#fcd2a4"></path><path id="Path_8941" data-name="Path 8941" d="M372.578,197.683c-.167-1.37-.547-2.9-1.755-3.571s-3.151.6-2.5,1.81a26.554,26.554,0,0,0-2.927-9.783c-1.317-2.516-3.435-6.428-6.1-7.656a.615.615,0,0,0-.387-.08c-.218.047-.325.29-.385.5a5.141,5.141,0,0,0,.2,3.308,4.2,4.2,0,0,0-1.084-2.117,34.823,34.823,0,0,0-8.38-7.5,32.962,32.962,0,0,0-4.575-2.287c-1.886-.829-3.3-1.841-5.486-1.738-.473.613.056,1.475.574,2.049a67.343,67.343,0,0,0,5.681,5.581,32,32,0,0,0-5.7-4.141,10.794,10.794,0,0,0-6.809-1.3,1.713,1.713,0,0,0-1.3.736,1.612,1.612,0,0,0,0,1.172c.568,1.915,2.147,3.33,3.657,4.636,2.166,1.878,4.338,3.748,6.5,5.63,1.113.971,3.851,3.238,4,4.725a19.8,19.8,0,0,0-3.435-.648,2.109,2.109,0,0,0-.948.1c-.856.364-.932,1.567-.646,2.452.823,2.534,3.277,4.114,5.56,5.486q1.7,1.024,3.4,2.047a18.252,18.252,0,0,0-2.767-1.3,1.547,1.547,0,0,0-1.366-.047c-.615.405-.387,1.364.01,1.983a18.854,18.854,0,0,0,3.98,3.869,27.149,27.149,0,0,1,6.366,7.948,9.365,9.365,0,0,0-4.326-3.394.925.925,0,0,0-.8-.035.849.849,0,0,0-.269.839c.165,1.432,1.271,2.54,2.172,3.665a13.617,13.617,0,0,1,3.186,8.485c-.018,2.717-1.421,6.084.245,8.573,2.236,3.34,6.36,2.8,8.415-.095,2.337-3.293,3.211-8.088,4.813-11.778C371.922,210.006,373.359,204.057,372.578,197.683Z" transform="translate(-300.576 -168.569)" fill="#fcd2a4"></path><path id="Path_8942" data-name="Path 8942" d="M375.921,206.721c1.179.718,2.421,1.695,2.532,3.069s-1.841,2.627-2.678,1.532a26.546,26.546,0,0,1,7.711,6.691c1.753,2.236,4.447,5.776,4.47,8.713a.489.489,0,0,1-.706.529,5.146,5.146,0,0,1-2.931-1.545,4.188,4.188,0,0,1,1.483,1.859,34.8,34.8,0,0,1,3.386,10.723,32.956,32.956,0,0,1,.2,5.109c-.018,2.059.323,3.764-.671,5.714-.753.179-1.321-.656-1.631-1.366a67.616,67.616,0,0,1-2.748-7.475,32.2,32.2,0,0,1,1.43,6.9,10.79,10.79,0,0,1-1.619,6.739,1.72,1.72,0,0,1-1.205.878,1.615,1.615,0,0,1-1.068-.481c-1.512-1.3-2.152-3.326-2.723-5.241-.819-2.746-1.629-5.494-2.458-8.238-.426-1.413-1.366-4.842-2.658-5.593a20.009,20.009,0,0,1-.823,3.4,2.118,2.118,0,0,1-.483.823c-.683.629-1.81.206-2.5-.42-1.971-1.792-2.4-4.68-2.713-7.325l-.465-3.943a18.3,18.3,0,0,1,.049,3.059,1.545,1.545,0,0,1-.52,1.265c-.621.393-1.4-.21-1.8-.825a18.881,18.881,0,0,1-1.888-5.221,27.1,27.1,0,0,0-4.626-9.071,9.367,9.367,0,0,1,1.314,5.338.927.927,0,0,1-.3.749.851.851,0,0,1-.876-.1c-1.238-.738-1.792-2.205-2.446-3.489a13.624,13.624,0,0,0-6.426-6.4c-2.483-1.1-6.13-1.205-7.714-3.75-2.123-3.412.066-6.948,3.55-7.631,3.962-.775,8.693.4,12.714.459C364.418,202.252,370.433,203.387,375.921,206.721Z" transform="translate(-290.596 -133.83)" fill="#fcd2a4"></path></g></g><g id="Group_1697" data-name="Group 1697" transform="translate(855.479 383.402)" opacity="0.4"><g id="Group_1696" data-name="Group 1696"><path id="Path_8943" data-name="Path 8943" d="M442.192,380.161s13.74-86.11,17.9-121.045l5.165.512s-7.271,99.33-7.092,122.113Z" transform="translate(-421.746 -204.782)" fill="#fcd2a4"></path><path id="Path_8944" data-name="Path 8944" d="M466.684,253.272a2.945,2.945,0,0,0-1.541-.607c-.553,0-.983.522-.592.878a34.562,34.562,0,0,0-17.424-9.429,9.335,9.335,0,0,0-5.274,0c-1.5.625-2.09,2.429-.73,3.513a9.42,9.42,0,0,0-8.069.37c-.333.208-.66.5-.568.86.086.329.492.576.868.771a17.222,17.222,0,0,0,4.735,1.6,9.863,9.863,0,0,0-3.507.146c.3,1.75,3.038,2.715,5.268,3.24q3.814.9,7.629,1.8a1.735,1.735,0,0,0-2.051.222,17.361,17.361,0,0,0,8.545,2.954,1.6,1.6,0,0,0-1.79-.029.9.9,0,0,0,.208,1.4,3.4,3.4,0,0,0,1.026.436q4.073,1.24,8.148,2.477l-1.018.868a33.635,33.635,0,0,0,6.578,3.777c6.43,2.793,10.6,1.057,8.625-4.239A23.03,23.03,0,0,0,466.684,253.272Z" transform="translate(-432.022 -221.045)" fill="#fcd2a4"></path><path id="Path_8945" data-name="Path 8945" d="M441.233,261.432c-.436.171-.864.348-1.288.531-.95.409-1.964.926-2.172,1.631a.754.754,0,0,0,.455.856c.095.033.86.156.518-.136-.611-.527-2.063.385-2.67.81-2.394,1.678-3.8,3.92-3.824,6.1a.805.805,0,0,0,.343.78,2.14,2.14,0,0,0,1.115.169,9.533,9.533,0,0,0,2.532-.446c-.817.265-1.016,2.174-1.146,2.655-.23.862-.57,1.726-.045,2.544a2.035,2.035,0,0,0,1.621.841,4.4,4.4,0,0,0,2.96-1.329l2.435-2.1-.354,1.082c-.158.485-.278,1.063.263,1.37a2.51,2.51,0,0,0,2.265-.292c.619-.4,1-.93,1.582-1.351-.243.278.249.592.724.543a2.072,2.072,0,0,0,1.142-.574,4.189,4.189,0,0,0,1.66-3.5,3.4,3.4,0,0,0,1.475,1.436c1.8.8,3.744-.845,4.671-1.783a11.632,11.632,0,0,1,3.069-2.69c-.3.333.263.72.835.679a2.621,2.621,0,0,0,1.423-.64,6.608,6.608,0,0,0,1.853-2.221,2.2,2.2,0,0,0,.043,1.611,1.864,1.864,0,0,0,1.934.7,2.958,2.958,0,0,0,1.035-.5,23.219,23.219,0,0,0,4.128-3.886c1.59-1.771,3.221-3.626,3.454-5.6a4.006,4.006,0,0,0-3.748-4.221c-1.89-.189-3.635.42-5.5.51-1.458.074-2.824-.15-4.32-.053a37.854,37.854,0,0,0-11.794,2.693c-.49.2-1.047.529-.889.866a.976.976,0,0,0,.57.354,9.594,9.594,0,0,0,2.378.459A29.08,29.08,0,0,0,441.233,261.432Z" transform="translate(-432.252 -209.697)" fill="#fcd2a4"></path><path id="Path_8946" data-name="Path 8946" d="M456.291,257.355a5.324,5.324,0,0,1,3.861-2.32c.364.518.119,1.218-.57,1.646.136-.084.189-.891.284-1.068a4.01,4.01,0,0,1,.963-1.129,7.737,7.737,0,0,1,3.24-1.516,8.716,8.716,0,0,1,1.9-.2c.952,0,.833.033,1.506-.436a17.464,17.464,0,0,1,4.488-2.069,2.991,2.991,0,0,1,2.133-.095.671.671,0,0,1,.216.991,3.583,3.583,0,0,1-1,.909,30.819,30.819,0,0,1,6.593-1.792,15.527,15.527,0,0,1,6.732.391c.22.072.467.2.389.362-.062.13-.288.193-.485.237l-1.553.344a14.846,14.846,0,0,1,5.243.648c1.539.4,3.182.934,3.7,1.962a.656.656,0,0,1,.054.582,1.752,1.752,0,0,1-.94.648,10.232,10.232,0,0,1-3.213.679A13.262,13.262,0,0,1,493.7,257c1.119.5,1.95,1.314,1.909,2.236a.886.886,0,0,1-.261.625,2.176,2.176,0,0,1-.708.4,14.255,14.255,0,0,1-5.589.845,38.619,38.619,0,0,1-5.513-.669,4.459,4.459,0,0,1,2.055,1.041,8.8,8.8,0,0,1-4.328.249,2.525,2.525,0,0,1,.9.642.574.574,0,0,1-.212.856,2.078,2.078,0,0,1-.664.208c-2.542.459-5.019-.3-7.228-1.035a.738.738,0,0,1,.3,1.393,4.33,4.33,0,0,1-2.429.584,9.754,9.754,0,0,1-3.9-.74.4.4,0,0,1,.267.673,2.1,2.1,0,0,1-1.024.49,7.843,7.843,0,0,1-5.027-.362c.237.088.218.335.033.485a1.873,1.873,0,0,1-.749.292,18.042,18.042,0,0,1-3.013.416c-1.349.072-3.279-.006-4.06.9-.65.753-.887,1.707-1.543,2.489C449.242,266.55,454.251,260,456.291,257.355Z" transform="translate(-411.795 -214.409)" fill="#fcd2a4"></path><path id="Path_8947" data-name="Path 8947" d="M473.166,253.936a3.271,3.271,0,0,0-1.279-2.606c-.88-.485-2.3.436-1.822,1.323a19.367,19.367,0,0,0-2.135-7.136c-.961-1.837-2.505-4.69-4.451-5.585a.46.46,0,0,0-.282-.06c-.158.035-.237.212-.282.368a3.75,3.75,0,0,0,.148,2.413,3.064,3.064,0,0,0-.792-1.545,25.433,25.433,0,0,0-6.111-5.467,24.188,24.188,0,0,0-3.338-1.668c-1.374-.6-2.407-1.343-4-1.267-.344.446.041,1.076.42,1.493a49,49,0,0,0,4.145,4.071,23.43,23.43,0,0,0-4.157-3.02,7.859,7.859,0,0,0-4.968-.946,1.243,1.243,0,0,0-.944.537,1.175,1.175,0,0,0,0,.854,7.776,7.776,0,0,0,2.668,3.384q2.37,2.052,4.739,4.106c.813.708,2.81,2.361,2.921,3.445a14.351,14.351,0,0,0-2.505-.471,1.534,1.534,0,0,0-.691.072c-.625.265-.681,1.144-.471,1.79.6,1.847,2.388,3,4.054,4l2.483,1.493a13.508,13.508,0,0,0-2.02-.952,1.126,1.126,0,0,0-1-.033c-.448.3-.282.993.008,1.446a13.706,13.706,0,0,0,2.9,2.822,19.869,19.869,0,0,1,4.643,5.8,6.85,6.85,0,0,0-3.155-2.474.678.678,0,0,0-.586-.027.619.619,0,0,0-.2.613,5.665,5.665,0,0,0,1.586,2.672,9.945,9.945,0,0,1,2.322,6.191c-.012,1.981-1.037,4.437.179,6.253,1.631,2.438,4.638,2.043,6.138-.07,1.705-2.4,2.343-5.9,3.511-8.59A25.054,25.054,0,0,0,473.166,253.936Z" transform="translate(-420.645 -232.701)" fill="#fcd2a4"></path><path id="Path_8948" data-name="Path 8948" d="M475.6,260.529a3.264,3.264,0,0,1,1.847,2.238c.08,1-1.343,1.917-1.954,1.117a19.4,19.4,0,0,1,5.626,4.881c1.279,1.631,3.244,4.215,3.26,6.356a.455.455,0,0,1-.064.282.462.462,0,0,1-.451.1,3.737,3.737,0,0,1-2.139-1.125,3.042,3.042,0,0,1,1.082,1.356,25.471,25.471,0,0,1,2.47,7.82,24.088,24.088,0,0,1,.146,3.727c-.014,1.5.234,2.748-.49,4.169-.549.13-.965-.479-1.191-1a49.433,49.433,0,0,1-2-5.453,23.539,23.539,0,0,1,1.043,5.031,7.858,7.858,0,0,1-1.183,4.916,1.243,1.243,0,0,1-.878.64,1.179,1.179,0,0,1-.778-.35,7.751,7.751,0,0,1-1.987-3.824c-.6-2-1.189-4.007-1.794-6.008-.311-1.031-1-3.532-1.938-4.079a14.3,14.3,0,0,1-.6,2.477,1.5,1.5,0,0,1-.352.6c-.5.461-1.321.15-1.822-.306-1.44-1.306-1.753-3.412-1.981-5.342l-.339-2.876a13.037,13.037,0,0,1,.037,2.232,1.126,1.126,0,0,1-.378.922c-.455.286-1.022-.154-1.316-.6a13.806,13.806,0,0,1-1.376-3.807,19.792,19.792,0,0,0-3.373-6.617,6.849,6.849,0,0,1,.959,3.894.673.673,0,0,1-.218.545.619.619,0,0,1-.64-.072,5.676,5.676,0,0,1-1.783-2.544,9.954,9.954,0,0,0-4.686-4.665c-1.812-.8-4.472-.878-5.628-2.734-1.549-2.491.047-5.068,2.59-5.566,2.89-.566,6.34.292,9.273.333A25.068,25.068,0,0,1,475.6,260.529Z" transform="translate(-413.366 -207.362)" fill="#fcd2a4"></path></g></g><g id="Group_1699" data-name="Group 1699" transform="translate(117.057 129.583)" opacity="0.4"><g id="Group_1698" data-name="Group 1698"><path id="Path_8949" data-name="Path 8949" d="M74.31,438.748l83.673-3.288L128.657,179.4l-45.206,1.777Z" transform="translate(-72.156 -35.22)" fill="#fcd2a4"></path><path id="Path_8950" data-name="Path 8950" d="M76.944,240.91l60.875-2.392-1.874-16.367-58.416,2.3Z" transform="translate(-69.372 9.967)" fill="#fcd2a4"></path><path id="Path_8951" data-name="Path 8951" d="M78.566,192.06,125.4,190.22,124.158,179.4l-45.206,1.777Z" transform="translate(-67.657 -35.22)" fill="#fcd2a4"></path><path id="Path_8952" data-name="Path 8952" d="M79.911,209.167l39.761-1.563L112.9,144.536l-31.181,1.225Z" transform="translate(-66.236 -72.068)" fill="#fcd2a4"></path><path id="Path_8953" data-name="Path 8953" d="M83.063,152.859l22.4-.88-.637-7.352-21.7.853Z" transform="translate(-62.904 -71.972)" fill="#fcd2a4"></path><path id="Path_8954" data-name="Path 8954" d="M84.553,159.71l15.765-.62L98.04,128.358l-13.628.536Z" transform="translate(-61.478 -89.167)" fill="#fcd2a4"></path><path id="Path_8955" data-name="Path 8955" d="M84.451,137.286l14.21-.558-.62-8.369-13.628.536Z" transform="translate(-61.478 -89.167)" fill="#fcd2a4"></path><path id="Path_8956" data-name="Path 8956" d="M89.357,154.519l30.014-1.179,14.856-16.361-60.964,2.4Z" transform="translate(-73.263 -80.056)" fill="#f2b981"></path><path id="Path_8957" data-name="Path 8957" d="M83.9,188.664l40.874-1.606c4.591-.179,7.888-3.462,7.366-7.331h0c-.52-3.869-4.492-6.866-8.868-6.693l-38.975,1.53c-4.375.173-8.1,3.472-8.316,7.37h0C75.762,185.832,79.308,188.845,83.9,188.664Z" transform="translate(-70.403 -41.955)" fill="#f2b981"></path><path id="Path_8958" data-name="Path 8958" d="M83.933,234.338l53.456-2.1c6-.237,10.445-3.565,9.925-7.434h0c-.522-3.869-5.638-6.821-11.428-6.593l-51.557,2.026c-5.788.226-10.657,3.571-10.873,7.469h0C73.239,231.6,77.929,234.574,83.933,234.338Z" transform="translate(-73.067 5.79)" fill="#f2b981"></path><path id="Path_8959" data-name="Path 8959" d="M91.343,109.305l18.2,41-28.762,1.13Z" transform="translate(-65.317 -109.305)" fill="#f2b981"></path><path id="Path_8960" data-name="Path 8960" d="M87.691,209.042a2.266,2.266,0,0,1,.7-1.475,9.5,9.5,0,0,1,6.541-2.516c.212-.008.422-.01.631-.008,4.367.039,7.358,2.236,7.5,3.729l1.693,18.15-16.168.636Z" transform="translate(-58.014 -8.116)" fill="#f3af04"></path><path id="Path_8961" data-name="Path 8961" d="M87.945,164.947a1.728,1.728,0,0,1,.49-1.249,2.9,2.9,0,0,1,2.043-.882l.169,0a2.767,2.767,0,0,1,2.861,2.152l1.026,13.891-5.9.23Z" transform="translate(-57.746 -52.752)" fill="#f3af04"></path></g></g><g id="Group_1701" data-name="Group 1701" transform="translate(730.36 132.674)" opacity="0.4"><g id="Group_1700" data-name="Group 1700"><path id="Path_8962" data-name="Path 8962" d="M371.424,432.112l82.8,7.659,4.475-255.9-44.735-4.138Z" transform="translate(-371.424 -37.96)" fill="#fcd2a4"></path><path id="Path_8963" data-name="Path 8963" d="M383.682,238l60.241,5.572.286-16.357L386.4,221.869Z" transform="translate(-358.469 6.577)" fill="#fcd2a4"></path><path id="Path_8964" data-name="Path 8964" d="M391.232,190.4l46.344,4.287.189-10.814-44.735-4.138Z" transform="translate(-350.488 -37.96)" fill="#fcd2a4"></path><path id="Path_8965" data-name="Path 8965" d="M393.806,207.6l39.347,3.64,1.543-62.971-30.856-2.854Z" transform="translate(-347.769 -74.235)" fill="#fcd2a4"></path><path id="Path_8966" data-name="Path 8966" d="M400.468,152.879l22.165,2.05.33-7.321-21.477-1.986Z" transform="translate(-340.726 -74.012)" fill="#fcd2a4"></path><path id="Path_8967" data-name="Path 8967" d="M402.519,159.982l15.6,1.443,1.759-30.552-13.485-1.247Z" transform="translate(-338.56 -90.919)" fill="#fcd2a4"></path><path id="Path_8968" data-name="Path 8968" d="M403.889,137.892l14.062,1.3.479-8.32-13.485-1.247Z" transform="translate(-337.111 -90.919)" fill="#fcd2a4"></path><path id="Path_8969" data-name="Path 8969" d="M406.057,154.556l29.7,2.748,16.756-14.173-60.329-5.581Z" transform="translate(-349.481 -82.543)" fill="#f2b981"></path><path id="Path_8970" data-name="Path 8970" d="M396.72,187.357l40.448,3.742c4.542.42,8.218-2.382,8.207-6.259h0c-.01-3.875-3.528-7.343-7.86-7.744l-38.568-3.567c-4.332-.4-8.425,2.361-9.147,6.171h0C389.08,183.508,392.178,186.937,396.72,187.357Z" transform="translate(-352.112 -44.557)" fill="#f2b981"></path><path id="Path_8971" data-name="Path 8971" d="M390.836,231.917l52.9,4.893c5.938.549,10.748-2.15,10.737-6.025h0c-.008-3.877-4.661-7.45-10.39-7.979l-51.021-4.721c-5.729-.531-10.957,2.129-11.679,5.938h0C380.664,227.833,384.9,231.367,390.836,231.917Z" transform="translate(-360.982 2.507)" fill="#f2b981"></path><path id="Path_8972" data-name="Path 8972" d="M416.56,110.808l12.577,42.735-28.462-2.633Z" transform="translate(-340.509 -110.808)" fill="#f2b981"></path><path id="Path_8973" data-name="Path 8973" d="M398.206,208.767a2.254,2.254,0,0,1,.884-1.36,9.444,9.444,0,0,1,6.767-1.627q.315.031.623.074c4.295.609,6.952,3.159,6.895,4.651l-.7,18.087-16-1.479Z" transform="translate(-344.728 -10.485)" fill="#f3af04"></path><path id="Path_8974" data-name="Path 8974" d="M403.889,165.686a1.722,1.722,0,0,1,.644-1.166,2.9,2.9,0,0,1,2.127-.6l.167.018a2.748,2.748,0,0,1,2.536,2.491l-.8,13.808-5.84-.541Z" transform="translate(-338.341 -54.689)" fill="#f3af04"></path></g></g><g id="Group_1709" data-name="Group 1709" transform="translate(188.434 413.048)" opacity="0.4"><g id="Group_1708" data-name="Group 1708" transform="translate(0)"><rect id="Rectangle_81" data-name="Rectangle 81" width="156.607" height="156.607" transform="translate(0 117.512)" fill="#f9ebd2"></rect><path id="Path_8975" data-name="Path 8975" d="M162.753,421.652H140.968c-.874,0-1.582.874-1.582,0v-89.86a12.474,12.474,0,0,1,12.475-12.473h0a12.475,12.475,0,0,1,12.475,12.473v89.86C164.337,422.526,163.627,421.652,162.753,421.652Z" transform="translate(-74.751 -170.797)" fill="#f3af04"></path><path id="Path_8976" data-name="Path 8976" d="M213.079,337.11H130.269c-17.029-21.505-8.849-37.685,5.044-46.425,13.866-8.719,30.743-19.331,36.344-34.9l.019-.047a.241.241,0,0,0,.014.047c5.6,15.571,22.478,26.183,36.344,34.9C221.924,299.425,230.1,315.6,213.079,337.11Z" transform="translate(-94.515 -238.002)" fill="#f9ebd2"></path><g id="Group_1706" data-name="Group 1706" transform="translate(45.82 16.449)"><g id="Group_1703" data-name="Group 1703"><g id="Group_1702" data-name="Group 1702"><path id="Path_8977" data-name="Path 8977" d="M186.978,338h-50.8l-.064-.132c-4.809-9.956-6.679-19.42-5.556-28.131a32.12,32.12,0,0,1,8.676-18.556c8.341-8.6,18.708-19.29,22.108-34.791l.313-1.281.16,1.281c3.4,15.5,13.767,26.189,22.1,34.779a32.14,32.14,0,0,1,8.686,18.568c1.123,8.711-.747,18.175-5.554,28.131Zm-50.512-.463h50.222c4.721-9.826,6.555-19.158,5.449-27.74A31.683,31.683,0,0,0,183.59,291.5c-8.213-8.468-18.383-18.953-22.013-34.077-3.631,15.123-13.8,25.607-22,34.065a31.677,31.677,0,0,0-8.561,18.307C129.908,318.381,131.742,327.713,136.465,337.539Z" transform="translate(-130.239 -255.111)" fill="#fcd2a4"></path></g></g><g id="Group_1705" data-name="Group 1705" transform="translate(31.105 1.33)"><g id="Group_1704" data-name="Group 1704"><rect id="Rectangle_82" data-name="Rectangle 82" width="0.462" height="81.527" fill="#fcd2a4"></rect></g></g></g><g id="Group_1707" data-name="Group 1707" transform="translate(70.826)"><circle id="Ellipse_194" data-name="Ellipse 194" cx="1.103" cy="1.103" r="1.103" transform="translate(5.227 14.408)" fill="#f9ebd2"></circle><path id="Path_8978" data-name="Path 8978" d="M147.144,253.458a1.1,1.1,0,1,1-1.1-1.1A1.1,1.1,0,0,1,147.144,253.458Z" transform="translate(-139.71 -241.575)" fill="#f9ebd2"></path><rect id="Rectangle_83" data-name="Rectangle 83" width="0.891" height="9.789" transform="translate(5.885 8.875)" fill="#f9ebd2"></rect><path id="Path_8979" data-name="Path 8979" d="M154.52,247.114a6.33,6.33,0,1,1-11.587,0,5.8,5.8,0,0,0,11.587,0Z" transform="translate(-142.396 -247.114)" fill="#f9ebd2"></path></g><rect id="Rectangle_84" data-name="Rectangle 84" width="84.594" height="13.844" transform="translate(34.86 98.55)" fill="#f9ebd2"></rect><path id="Path_8980" data-name="Path 8980" d="M120.95,306.988a.648.648,0,0,1-.648-.65v-4.044a.648.648,0,0,1,.648-.648H223.2a.648.648,0,0,1,.65.648v4.044a.649.649,0,0,1-.65.65" transform="translate(-94.922 -189.477)" fill="#f9ebd2"></path></g></g><g id="Group_1717" data-name="Group 1717" transform="translate(593.883 413.048)" opacity="0.4"><g id="Group_1716" data-name="Group 1716"><rect id="Rectangle_85" data-name="Rectangle 85" width="156.607" height="156.607" transform="translate(0 117.512)" fill="#f9ebd2"></rect><path id="Path_8981" data-name="Path 8981" d="M359.865,421.652H338.08c-.874,0-1.582.874-1.582,0v-89.86a12.474,12.474,0,0,1,12.475-12.473h0a12.474,12.474,0,0,1,12.473,12.473v89.86C361.447,422.526,360.739,421.652,359.865,421.652Z" transform="translate(-271.862 -170.797)" fill="#f3af04"></path><path id="Path_8982" data-name="Path 8982" d="M410.19,337.11H327.38c-17.029-21.505-8.849-37.685,5.046-46.425,13.864-8.719,30.743-19.331,36.342-34.9l.021-.047a.245.245,0,0,0,.014.047c5.6,15.571,22.478,26.183,36.344,34.9C419.037,299.425,427.218,315.6,410.19,337.11Z" transform="translate(-291.628 -238.002)" fill="#f9ebd2"></path><g id="Group_1714" data-name="Group 1714" transform="translate(45.821 16.449)"><g id="Group_1711" data-name="Group 1711"><g id="Group_1710" data-name="Group 1710"><path id="Path_8983" data-name="Path 8983" d="M384.09,338h-50.8l-.062-.132c-4.809-9.956-6.679-19.42-5.556-28.131a32.132,32.132,0,0,1,8.674-18.556c8.343-8.6,18.71-19.29,22.108-34.791l.315-1.281.158,1.281c3.4,15.5,13.767,26.189,22.1,34.779a32.127,32.127,0,0,1,8.684,18.568c1.123,8.711-.745,18.175-5.554,28.131Zm-50.512-.463H383.8c4.723-9.826,6.555-19.158,5.451-27.74A31.67,31.67,0,0,0,380.7,291.5c-8.213-8.468-18.381-18.953-22.011-34.077-3.63,15.123-13.8,25.607-22,34.065a31.677,31.677,0,0,0-8.561,18.307C327.02,318.381,328.854,327.713,333.577,337.539Z" transform="translate(-327.351 -255.111)" fill="#fcd2a4"></path></g></g><g id="Group_1713" data-name="Group 1713" transform="translate(31.105 1.33)"><g id="Group_1712" data-name="Group 1712"><rect id="Rectangle_86" data-name="Rectangle 86" width="0.462" height="81.527" fill="#fcd2a4"></rect></g></g></g><g id="Group_1715" data-name="Group 1715" transform="translate(70.827)"><circle id="Ellipse_195" data-name="Ellipse 195" cx="1.103" cy="1.103" r="1.103" transform="translate(5.227 14.408)" fill="#f9ebd2"></circle><path id="Path_8984" data-name="Path 8984" d="M344.254,253.458a1.1,1.1,0,1,1-1.1-1.1A1.1,1.1,0,0,1,344.254,253.458Z" transform="translate(-336.822 -241.575)" fill="#f9ebd2"></path><rect id="Rectangle_87" data-name="Rectangle 87" width="0.891" height="9.789" transform="translate(5.884 8.875)" fill="#f9ebd2"></rect><path id="Path_8985" data-name="Path 8985" d="M351.632,247.114a6.329,6.329,0,1,1-11.589,0,5.8,5.8,0,0,0,11.589,0Z" transform="translate(-339.508 -247.114)" fill="#f9ebd2"></path></g><rect id="Rectangle_88" data-name="Rectangle 88" width="84.594" height="13.844" transform="translate(34.86 98.55)" fill="#f9ebd2"></rect><path id="Path_8986" data-name="Path 8986" d="M318.063,306.988a.65.65,0,0,1-.65-.65v-4.044a.65.65,0,0,1,.65-.648H420.318a.65.65,0,0,1,.65.648v4.044a.65.65,0,0,1-.65.65" transform="translate(-292.034 -189.477)" fill="#f9ebd2"></path></g></g><g id="Group_1725" data-name="Group 1725" transform="translate(752.16 413.048)" opacity="0.4"><g id="Group_1724" data-name="Group 1724"><rect id="Rectangle_89" data-name="Rectangle 89" width="156.607" height="156.607" transform="translate(0 117.512)" fill="#f9ebd2"></rect><path id="Path_8987" data-name="Path 8987" d="M436.814,421.652H415.029c-.874,0-1.584.874-1.584,0v-89.86a12.475,12.475,0,0,1,12.475-12.473h0A12.474,12.474,0,0,1,438.4,331.792v89.86C438.4,422.526,437.686,421.652,436.814,421.652Z" transform="translate(-348.81 -170.797)" fill="#f3af04"></path><path id="Path_8988" data-name="Path 8988" d="M487.138,337.11H404.328c-17.029-21.505-8.849-37.685,5.044-46.425,13.866-8.719,30.743-19.331,36.344-34.9l.018-.047c0,.014.01.031.016.047,5.6,15.571,22.478,26.183,36.344,34.9C495.983,299.425,504.164,315.6,487.138,337.11Z" transform="translate(-368.575 -238.002)" fill="#f9ebd2"></path><g id="Group_1722" data-name="Group 1722" transform="translate(45.821 16.449)"><g id="Group_1719" data-name="Group 1719"><g id="Group_1718" data-name="Group 1718"><path id="Path_8989" data-name="Path 8989" d="M461.036,338h-50.8l-.064-.132c-4.807-9.956-6.677-19.42-5.556-28.131a32.12,32.12,0,0,1,8.676-18.556c8.341-8.6,18.708-19.29,22.108-34.791l.313-1.281.16,1.281c3.4,15.5,13.767,26.189,22.1,34.779a32.152,32.152,0,0,1,8.684,18.568c1.123,8.711-.747,18.175-5.554,28.131Zm-50.512-.463h50.222c4.721-9.826,6.555-19.158,5.449-27.74a31.683,31.683,0,0,0-8.547-18.294c-8.213-8.468-18.381-18.953-22.013-34.077-3.628,15.123-13.8,25.607-22,34.065a31.69,31.69,0,0,0-8.561,18.307C403.968,318.381,405.8,327.713,410.524,337.539Z" transform="translate(-404.299 -255.111)" fill="#fcd2a4"></path></g></g><g id="Group_1721" data-name="Group 1721" transform="translate(31.105 1.33)"><g id="Group_1720" data-name="Group 1720"><rect id="Rectangle_90" data-name="Rectangle 90" width="0.462" height="81.527" fill="#fcd2a4"></rect></g></g></g><g id="Group_1723" data-name="Group 1723" transform="translate(70.828)"><circle id="Ellipse_196" data-name="Ellipse 196" cx="1.103" cy="1.103" r="1.103" transform="translate(5.226 14.408)" fill="#f9ebd2"></circle><path id="Path_8990" data-name="Path 8990" d="M421.2,253.458a1.1,1.1,0,1,1-1.1-1.1A1.1,1.1,0,0,1,421.2,253.458Z" transform="translate(-413.77 -241.575)" fill="#f9ebd2"></path><rect id="Rectangle_91" data-name="Rectangle 91" width="0.891" height="9.789" transform="translate(5.883 8.875)" fill="#f9ebd2"></rect><path id="Path_8991" data-name="Path 8991" d="M428.58,247.114a6.329,6.329,0,1,1-11.589,0,5.8,5.8,0,0,0,11.589,0Z" transform="translate(-416.456 -247.114)" fill="#f9ebd2"></path></g><rect id="Rectangle_92" data-name="Rectangle 92" width="84.594" height="13.844" transform="translate(34.86 98.55)" fill="#f9ebd2"></rect><path id="Path_8992" data-name="Path 8992" d="M395.011,306.988a.649.649,0,0,1-.65-.65v-4.044a.648.648,0,0,1,.65-.648H497.266a.648.648,0,0,1,.648.648v4.044a.648.648,0,0,1-.648.65" transform="translate(-368.981 -189.477)" fill="#f9ebd2"></path></g></g><g id="Group_1733" data-name="Group 1733" transform="translate(31.828 413.048)" opacity="0.4"><g id="Group_1732" data-name="Group 1732"><rect id="Rectangle_93" data-name="Rectangle 93" width="156.607" height="156.607" transform="translate(0 117.512)" fill="#f9ebd2"></rect><path id="Path_8993" data-name="Path 8993" d="M86.618,421.652H64.833c-.874,0-1.582.874-1.582,0v-89.86a12.473,12.473,0,0,1,12.473-12.473h0A12.474,12.474,0,0,1,88.2,331.792v89.86C88.2,422.526,87.49,421.652,86.618,421.652Z" transform="translate(1.385 -170.797)" fill="#f3af04"></path><path id="Path_8994" data-name="Path 8994" d="M136.943,337.11H54.133C37.1,315.6,45.284,299.425,59.177,290.685c13.866-8.719,30.745-19.331,36.344-34.9l.018-.047c0,.014.01.031.016.047,5.6,15.571,22.478,26.183,36.344,34.9C145.788,299.425,153.969,315.6,136.943,337.11Z" transform="translate(-18.38 -238.002)" fill="#f9ebd2"></path><g id="Group_1730" data-name="Group 1730" transform="translate(45.821 16.449)"><g id="Group_1727" data-name="Group 1727"><g id="Group_1726" data-name="Group 1726"><path id="Path_8995" data-name="Path 8995" d="M110.841,338h-50.8l-.064-.132c-4.807-9.956-6.677-19.42-5.556-28.131A32.132,32.132,0,0,1,63.1,291.184c8.343-8.6,18.708-19.29,22.108-34.791l.315-1.281.158,1.281c3.4,15.5,13.767,26.189,22.1,34.779a32.152,32.152,0,0,1,8.684,18.568c1.123,8.711-.747,18.175-5.554,28.131Zm-50.512-.463h50.222c4.723-9.826,6.555-19.158,5.449-27.74a31.683,31.683,0,0,0-8.547-18.294c-8.213-8.468-18.381-18.953-22.013-34.077-3.628,15.123-13.8,25.607-22,34.065A31.69,31.69,0,0,0,54.878,309.8C53.773,318.381,55.606,327.713,60.329,337.539Z" transform="translate(-54.104 -255.111)" fill="#fcd2a4"></path></g></g><g id="Group_1729" data-name="Group 1729" transform="translate(31.105 1.33)"><g id="Group_1728" data-name="Group 1728"><rect id="Rectangle_94" data-name="Rectangle 94" width="0.463" height="81.527" fill="#fcd2a4"></rect></g></g></g><g id="Group_1731" data-name="Group 1731" transform="translate(70.828)"><circle id="Ellipse_197" data-name="Ellipse 197" cx="1.103" cy="1.103" r="1.103" transform="translate(5.226 14.408)" fill="#f9ebd2"></circle><path id="Path_8996" data-name="Path 8996" d="M71.007,253.458a1.1,1.1,0,1,1-1.1-1.1A1.1,1.1,0,0,1,71.007,253.458Z" transform="translate(-63.575 -241.575)" fill="#f9ebd2"></path><rect id="Rectangle_95" data-name="Rectangle 95" width="0.892" height="9.789" transform="translate(5.883 8.875)" fill="#f9ebd2"></rect><path id="Path_8997" data-name="Path 8997" d="M78.385,247.114a6.329,6.329,0,1,1-11.589,0,5.8,5.8,0,0,0,11.589,0Z" transform="translate(-66.261 -247.114)" fill="#f9ebd2"></path></g><rect id="Rectangle_96" data-name="Rectangle 96" width="84.594" height="13.844" transform="translate(34.86 98.55)" fill="#f9ebd2"></rect><path id="Path_8998" data-name="Path 8998" d="M44.816,306.988a.649.649,0,0,1-.65-.65v-4.044a.65.65,0,0,1,.65-.648H147.071a.648.648,0,0,1,.648.648v4.044a.648.648,0,0,1-.648.65" transform="translate(-18.787 -189.477)" fill="#f9ebd2"></path></g></g><g id="Group_1740" data-name="Group 1740" transform="translate(242.791 90.12)" opacity="0.4"><rect id="Rectangle_97" data-name="Rectangle 97" width="444.957" height="197.225" transform="translate(0 298.989)" fill="#f9ebd2"></rect><path id="Path_8999" data-name="Path 8999" d="M268.9,242.043a50.22,50.22,0,0,1,50.22,50.22V469.025c0,17.4-22.484,31.51-50.218,31.51h0c-27.736,0-50.22-14.109-50.22-31.51V292.263a50.22,50.22,0,0,1,50.218-50.22Z" transform="translate(-45.291 70.454)" fill="#fff"></path><path id="Path_9000" data-name="Path 9000" d="M330.729,276.946A36.272,36.272,0,0,1,367,313.216V440.885c0,12.57-16.24,22.76-36.272,22.76h0c-20.033,0-36.27-10.19-36.27-22.76V313.216a36.271,36.271,0,0,1,36.27-36.27Z" transform="translate(34.797 107.345)" fill="#fff"></path><path id="Path_9001" data-name="Path 9001" d="M191.7,276.946a36.272,36.272,0,0,1,36.272,36.27V440.885c0,12.57-16.24,22.76-36.272,22.76h0c-20.033,0-36.272-10.19-36.272-22.76V313.216a36.272,36.272,0,0,1,36.272-36.27Z" transform="translate(-112.156 107.345)" fill="#fff"></path><path id="Path_9002" data-name="Path 9002" d="M414.469,319.1H203.77c-43.33-54.717-22.515-95.889,12.835-118.124,35.277-22.188,78.222-49.184,92.47-88.807l.047-.119a.633.633,0,0,0,.041.119c14.248,39.623,57.193,66.618,92.47,88.807C436.976,223.214,457.791,264.386,414.469,319.1Z" transform="translate(-86.826 -66.938)" fill="#f9ebd2"></path><g id="Group_1738" data-name="Group 1738" transform="translate(142.561 41.849)"><g id="Group_1735" data-name="Group 1735"><g id="Group_1734" data-name="Group 1734"><path id="Path_9003" data-name="Path 9003" d="M348.056,321.37H218.8l-.16-.333c-12.237-25.331-16.992-49.412-14.137-71.574,3-23.309,13.662-38.541,22.073-47.215,21.226-21.886,47.6-49.083,56.251-88.523l.8-3.26.405,3.26c8.651,39.442,35.03,66.639,56.223,88.49,8.442,8.707,19.1,23.939,22.1,47.248,2.857,22.162-1.9,46.242-14.131,71.574Zm-128.52-1.177H347.318c12.015-25,16.678-48.743,13.866-70.58-2.962-22.986-13.461-38-21.748-46.547-20.9-21.549-46.769-48.225-56.009-86.7-9.234,38.471-35.108,65.15-55.978,86.669-8.318,8.58-18.819,23.591-21.783,46.58C202.855,271.448,207.52,295.193,219.536,320.193Z" transform="translate(-203.696 -110.465)" fill="#fcd2a4"></path></g></g><g id="Group_1737" data-name="Group 1737" transform="translate(79.141 3.387)"><g id="Group_1736" data-name="Group 1736"><rect id="Rectangle_98" data-name="Rectangle 98" width="1.176" height="207.435" fill="#fcd2a4"></rect></g></g></g><g id="Group_1739" data-name="Group 1739" transform="translate(206.186)"><path id="Path_9004" data-name="Path 9004" d="M246.7,110.747a2.806,2.806,0,1,1-2.806-2.806A2.806,2.806,0,0,1,246.7,110.747Z" transform="translate(-227.795 -71.284)" fill="#f9ebd2"></path><path id="Path_9005" data-name="Path 9005" d="M246.7,106.261a2.806,2.806,0,1,1-2.806-2.806A2.8,2.8,0,0,1,246.7,106.261Z" transform="translate(-227.795 -76.026)" fill="#f9ebd2"></path><rect id="Rectangle_99" data-name="Rectangle 99" width="2.269" height="24.908" transform="translate(14.97 22.58)" fill="#f9ebd2"></rect><path id="Path_9006" data-name="Path 9006" d="M265.474,90.12a16.1,16.1,0,1,1-29.484,0c1.031,7.964,7.236,14.088,14.74,14.088S264.445,98.084,265.474,90.12Z" transform="translate(-234.628 -90.12)" fill="#f9ebd2"></path></g><rect id="Rectangle_100" data-name="Rectangle 100" width="215.237" height="35.225" transform="translate(114.672 250.745)" fill="none" stroke="#fcd2a4" stroke-miterlimit="10" stroke-width="0.827"></rect><rect id="Rectangle_101" data-name="Rectangle 101" width="215.237" height="35.225" transform="translate(114.672 250.745)" fill="#f9ebd2"></rect><path id="Path_9007" data-name="Path 9007" d="M180.065,242.461a1.653,1.653,0,0,1-1.654-1.652V230.519a1.653,1.653,0,0,1,1.654-1.652H440.236a1.653,1.653,0,0,1,1.654,1.652V240.81a1.653,1.653,0,0,1-1.654,1.652" transform="translate(-87.86 56.528)" fill="#f9ebd2"></path></g><g id="Group_1741" data-name="Group 1741" transform="translate(110.881 594.709)" opacity="0.4"><path id="Path_9008" data-name="Path 9008" d="M81.377,337.87c3.215.428,3.277,5.159-.936,3.715S78.16,337.44,81.377,337.87Z" transform="translate(-62.056 -332.9)" fill="#fffefd"></path><path id="Path_9009" data-name="Path 9009" d="M90.124,339.444c3.256,1.407,1.485,4.291-1.07,3.125S86.87,338.039,90.124,339.444Z" transform="translate(-52.169 -331.543)" fill="#fffefd"></path><path id="Path_9010" data-name="Path 9010" d="M75.69,335.681c1.934.985-.121,3.2-1.765,2.312S73.758,334.693,75.69,335.681Z" transform="translate(-67.134 -335.411)" fill="#fffefd"></path><path id="Path_9011" data-name="Path 9011" d="M80.833,345.508c1.228,2.507,5.486,1.043,3.009-1.475S79.6,343,80.833,345.508Z" transform="translate(-59.508 -327.713)" fill="#fffefd"></path><path id="Path_9012" data-name="Path 9012" d="M84.457,335.994c1.454,1.479-.463,2.783-1.259,1.53S83,334.515,84.457,335.994Z" transform="translate(-56.959 -335.43)" fill="#fffefd"></path><path id="Path_9013" data-name="Path 9013" d="M71.873,340.084c1.454,1.479-.463,2.783-1.259,1.528S70.418,338.605,71.873,340.084Z" transform="translate(-70.26 -331.107)" fill="#fffefd"></path></g><g id="Group_1742" data-name="Group 1742" transform="translate(861.301 556.809)" opacity="0.4"><path id="Path_9014" data-name="Path 9014" d="M443.066,321.13c2.943-1.368,5.537,2.588,1.207,3.635S440.124,322.5,443.066,321.13Z" transform="translate(-428.902 -312.944)" fill="#fffefd"></path><path id="Path_9015" data-name="Path 9015" d="M451.424,317.35c3.5-.564,3.559,2.822.776,3.211S447.923,317.914,451.424,317.35Z" transform="translate(-419.968 -316.705)" fill="#fffefd"></path><path id="Path_9016" data-name="Path 9016" d="M437.165,321.873c2.158-.206,1.615,2.765-.245,2.9S435.005,322.079,437.165,321.873Z" transform="translate(-434.605 -311.869)" fill="#fffefd"></path><path id="Path_9017" data-name="Path 9017" d="M446.863,327.275c2.384,1.454,5.188-2.067,1.746-2.861S444.479,325.819,446.863,327.275Z" transform="translate(-424.117 -309.349)" fill="#fffefd"></path><path id="Path_9018" data-name="Path 9018" d="M444.882,317.08c2.02.467,1.1,2.6-.241,1.966S442.86,316.615,444.882,317.08Z" transform="translate(-426.187 -317.004)" fill="#fffefd"></path><path id="Path_9019" data-name="Path 9019" d="M436.466,327.291c2.02.465,1.1,2.6-.241,1.966S434.444,326.824,436.466,327.291Z" transform="translate(-435.082 -306.212)" fill="#fffefd"></path></g><g id="Group_1743" data-name="Group 1743" transform="translate(846.704 628.281)" opacity="0.4"><path id="Path_9020" data-name="Path 9020" d="M435.97,355.876c2.943-1.366,5.537,2.59,1.207,3.637S433.027,357.242,435.97,355.876Z" transform="translate(-421.806 -347.691)" fill="#fffefd"></path><path id="Path_9021" data-name="Path 9021" d="M444.328,352.1c3.5-.564,3.556,2.82.776,3.209S440.828,352.659,444.328,352.1Z" transform="translate(-412.871 -351.451)" fill="#fffefd"></path><path id="Path_9022" data-name="Path 9022" d="M430.067,356.62c2.16-.208,1.617,2.765-.245,2.9S427.91,356.826,430.067,356.62Z" transform="translate(-427.508 -346.615)" fill="#fffefd"></path><path id="Path_9023" data-name="Path 9023" d="M439.765,362.02c2.384,1.456,5.19-2.067,1.746-2.859S437.383,360.566,439.765,362.02Z" transform="translate(-417.021 -344.096)" fill="#fffefd"></path><path id="Path_9024" data-name="Path 9024" d="M437.784,351.827c2.022.465,1.1,2.6-.239,1.966S435.764,351.36,437.784,351.827Z" transform="translate(-419.09 -351.751)" fill="#fffefd"></path><path id="Path_9025" data-name="Path 9025" d="M429.368,362.037c2.022.467,1.1,2.6-.241,1.966S427.348,361.572,429.368,362.037Z" transform="translate(-427.986 -340.959)" fill="#fffefd"></path></g><g id="Group_1744" data-name="Group 1744" transform="translate(351.572 781.91)"><path id="Path_9026" data-name="Path 9026" d="M195.258,430.564c2.943-1.366,5.537,2.59,1.207,3.635S192.316,431.93,195.258,430.564Z" transform="translate(-181.094 -422.379)" fill="#fffefd"></path><path id="Path_9027" data-name="Path 9027" d="M203.616,426.784c3.5-.564,3.559,2.822.775,3.211S200.116,427.348,203.616,426.784Z" transform="translate(-172.16 -426.14)" fill="#fffefd"></path><path id="Path_9028" data-name="Path 9028" d="M189.357,431.307c2.158-.206,1.615,2.765-.247,2.9S187.2,431.515,189.357,431.307Z" transform="translate(-186.796 -421.304)" fill="#fffefd"></path><path id="Path_9029" data-name="Path 9029" d="M199.055,436.708c2.382,1.454,5.188-2.067,1.746-2.859S196.671,435.254,199.055,436.708Z" transform="translate(-176.309 -418.784)" fill="#fffefd"></path><path id="Path_9030" data-name="Path 9030" d="M197.072,426.515c2.022.465,1.1,2.594-.239,1.966S195.052,426.048,197.072,426.515Z" transform="translate(-178.379 -426.439)" fill="#fffefd"></path><path id="Path_9031" data-name="Path 9031" d="M188.656,436.725c2.022.465,1.1,2.6-.239,1.966S186.636,436.26,188.656,436.725Z" transform="translate(-187.274 -415.647)" fill="#fffefd"></path></g><g id="Group_1745" data-name="Group 1745" transform="translate(75.88 634.155)"><path id="Path_9032" data-name="Path 9032" d="M61.228,358.732c2.943-1.366,5.537,2.59,1.207,3.637S58.286,360.1,61.228,358.732Z" transform="translate(-47.064 -350.547)" fill="#fffefd"></path><path id="Path_9033" data-name="Path 9033" d="M69.586,354.952c3.5-.562,3.559,2.822.775,3.211S66.086,355.516,69.586,354.952Z" transform="translate(-38.13 -354.308)" fill="#fffefd"></path><path id="Path_9034" data-name="Path 9034" d="M55.327,359.475c2.158-.206,1.615,2.767-.247,2.9S53.168,359.683,55.327,359.475Z" transform="translate(-52.767 -349.472)" fill="#fffefd"></path><path id="Path_9035" data-name="Path 9035" d="M65.025,364.876c2.384,1.456,5.188-2.067,1.746-2.859S62.641,363.422,65.025,364.876Z" transform="translate(-42.279 -346.952)" fill="#fffefd"></path><path id="Path_9036" data-name="Path 9036" d="M63.044,354.683c2.02.465,1.1,2.594-.241,1.966S61.022,354.216,63.044,354.683Z" transform="translate(-44.349 -354.607)" fill="#fffefd"></path><path id="Path_9037" data-name="Path 9037" d="M54.628,364.893c2.02.465,1.1,2.6-.241,1.966S52.606,364.428,54.628,364.893Z" transform="translate(-53.244 -343.815)" fill="#fffefd"></path></g><path id="Path_9038" data-name="Path 9038" d="M366.954,153.6a38.794,38.794,0,1,1-25.309-63.2c-19.891,7.964-30.348,28.569-23.359,46.022S347.064,161.571,366.954,153.6Z" transform="translate(281.557 0.001)" fill="#fff" opacity="0.4"></path><path id="Path_9039" data-name="Path 9039" d="M822.913,495.341H61.133a12.9,12.9,0,0,1-12.9-12.9h0a12.9,12.9,0,0,1,12.9-12.9h761.78a12.9,12.9,0,0,1,12.9,12.9h0A12.9,12.9,0,0,1,822.913,495.341Z" transform="translate(17.339 401.026)" fill="#f9ebd2"></path><g id="Group_1767" data-name="Group 1767" transform="translate(78.949 234.764)"><g id="Group_1747" data-name="Group 1747"><g id="Group_1746" data-name="Group 1746" transform="translate(145.802)"><path id="Path_9040" data-name="Path 9040" d="M132.988,255.444l-7.369,25.975,51.743,17.428,14.964-55.739-40.949-23.537Z" transform="translate(-125.619 -97.942)" fill="#fec5cb"></path><path id="Path_9041" data-name="Path 9041" d="M171.784,281.588c-19.529-8.559-36.807-47.051-36.807-47.051l6.51-14.966,40.948,23.538Z" transform="translate(-115.727 -97.942)" fill="#fec5cb" opacity="0.5" style="mix-blend-mode: multiply;isolation: isolate"></path><path id="Path_9042" data-name="Path 9042" d="M253.5,220.449c3.561,26.479-8.082,44.321-12.107,52.981s4.752,17.359,3.256,21.191-14.292,3.791-17.089,1.3c0,0-16.458,30.852-42.955,27.273-20.22-2.73-46.491-28.036-35.032-75.358S201.466,189.6,201.466,189.6l42.647,11.574Z" transform="translate(-103.246 -129.618)" fill="#fec5cb"></path><path id="Path_9043" data-name="Path 9043" d="M188.189,212.3c5.149-2.76,13.656.424,14.088,4.573s-2.24,2.061-5.262.117c-5.634-3.624-7.732-.981-9.269-2.228C187.029,214.182,186.811,213.04,188.189,212.3Z" transform="translate(-60.552 -106.719)" fill="#232f36"></path><path id="Path_9044" data-name="Path 9044" d="M186.928,223.887c-2.156,3.147-2.732,6.5-1.281,7.5s4.371-.751,6.527-3.9,2.732-6.5,1.284-7.5S189.085,220.742,186.928,223.887Z" transform="translate(-63.018 -97.794)" fill="#232f36"></path><path id="Path_9045" data-name="Path 9045" d="M134.131,191.193c-18.1,23.208,2.719,83.035-2.141,98.69l40.23-20.613,15.221-38.041,7.323,23.443s10.143-23.937,32.823-37.126-31.813-34.857-31.813-34.857Z" transform="translate(-124.59 -136.923)" fill="#602807"></path><path id="Path_9046" data-name="Path 9046" d="M175.274,228.245c.321-16.988-7.341-28.413-17.1-26.9s-16.727,10.342-17.515,27.479,7.895,23.632,16.752,20.866S175.274,228.245,175.274,228.245Z" transform="translate(-109.778 -117.345)" fill="#fec5cb"></path><path id="Path_9047" data-name="Path 9047" d="M165.782,222.847c1.611-8.549-5.362-19.424-16.46-14.158s-3.25,27.1,5.315,27.03l6.315-5.55s-6.8-.786-4.233-4.492,6.206-3.5,7.288-.037Z" transform="translate(-106.348 -110.904)" fill="#fec5cb" opacity="0.5" style="mix-blend-mode: multiply;isolation: isolate"></path><path id="Path_9048" data-name="Path 9048" d="M158.534,221.416c2.049-12.854-5.173-16.351-10.657-13.2" transform="translate(-102.093 -111.092)" fill="none" stroke="#dd5f78" stroke-linecap="round" stroke-miterlimit="10" stroke-width="1.221"></path><path id="Path_9049" data-name="Path 9049" d="M157.661,207.979C143.291,210.951,145,227.162,150,228.413s6.72-3.6,6.72-3.6" transform="translate(-103.668 -110.194)" fill="none" stroke="#dd5f78" stroke-linecap="round" stroke-miterlimit="10" stroke-width="1.221"></path><path id="Path_9050" data-name="Path 9050" d="M187.41,247.571l-21.164-13.333S160.439,250.484,178.4,259.3Z" transform="translate(-83.624 -82.439)" fill="#fff"></path><path id="Path_9051" data-name="Path 9051" d="M180,224.421c3.275,1.818,5.044,4.889,3.949,6.858s-4.634,2.088-7.909.269S171,226.659,172.1,224.69,176.73,222.6,180,224.421Z" transform="translate(-76.836 -94.177)" fill="#fec5cb" opacity="0.5" style="mix-blend-mode: multiply;isolation: isolate"></path><path id="Path_9052" data-name="Path 9052" d="M128.977,215.075l148.043,40.04s9.925-79.246-52.216-92.252C148.512,146.9,128.977,215.075,128.977,215.075Z" transform="translate(-122.069 -160.44)" fill="#7253ec"></path><path id="Path_9053" data-name="Path 9053" d="M215.393,161.3c-29.741,8.111-51.526,27.933-65.863,50.9-1.5,2.4-2.931,4.824-4.243,7.263l-14.329-3.875-1.985-.531S146.878,152.545,215.393,161.3Z" transform="translate(-122.074 -160.423)" fill="#5d3ae3"></path><path id="Path_9054" data-name="Path 9054" d="M130.8,258.445c-3.336-23.729-8.645-55.225,2.668-71.189l14.329,3.875C135.255,214.126,129.753,239.212,130.8,258.445Z" transform="translate(-124.585 -132.097)" fill="#542e27"></path></g><path id="Path_9055" data-name="Path 9055" d="M202.932,369.519c17.426-9.82,32.884-23.986,37.307-34.98s10.863-18.7,22.91-22.653,16.8-.625,24.278-2.117,3.659,9.579-8.314,12.938-9.287,5.484-9.287,5.484,3.639,1.031,13.088-3.1c11.6-5.075,19.214-13.773,24.64-15.826s8.9,6.59.588,14.664a94.778,94.778,0,0,1-16.507,12.819s26.9-28.635,34.034-25.712-5.9,19.522-19.037,29.725c0,0,18.679-15.586,22.752-11.729s-13.44,17.459-22.31,22.727c0,0,15.791-9.565,17.322-4.813s-30.971,26.874-46.246,30.846-41.727,8.857-60.254,23.246S202.932,369.519,202.932,369.519Z" transform="translate(101.609 -3.469)" fill="#fec5cb"></path><path id="Path_9056" data-name="Path 9056" d="M268.168,357.84c-.22.045-.442.134-.662.177-11.969,3.147-30.9,6.827-47.427,15.248-4.079-3.013-7.36-5.628-7.36-5.628l2.839-18.352,12.233-21.629C237.631,343.213,260.724,354.516,268.168,357.84Z" transform="translate(112.244 16.298)" fill="#fec5cb"></path><path id="Path_9057" data-name="Path 9057" d="M250.224,453.839c22.26.666,62.12-6.134,65.246-.045,3.809,7.415-5.011,9.4-5.011,9.4s13.037-.479,14.717,4.519c1.343,4-5.488,6.533-5.488,6.533s6.342.267,6.529,2.351c.428,4.768-7.458,4.871-7.458,4.871s9.614.531,7.888,4.887-9.618,4.054-9.618,4.054,4.248,1.569,3.406,3.9-5.476,10.365-39.689,9.092-55.667,5.755-74.85-2.742-23.038-34.859-23.038-34.859L211.9,446.512S233.034,453.325,250.224,453.839Z" transform="translate(80.683 141.923)" fill="#fec5cb"></path><path id="Path_9058" data-name="Path 9058" d="M396.705,537.68c-43.72,22.454-201.556,34.306-256.409,28.392C68.5,558.353,60.87,486.454,60.87,486.454s-.36-3.223-.784-8.355c17.852,5.408,43.889.7,43.889.7l1.866-29.091.179-44.442c36.577-5.237,161.919,1.442,164.231,0a422.833,422.833,0,0,0,62.718,1.294c74.19-4.515,122.787,15.374,123.635,40.222C457.387,471.654,440.405,515.268,396.705,537.68Z" transform="translate(-49.081 96.174)" fill="#61046e"></path><path id="Path_9059" data-name="Path 9059" d="M442.949,582.017a112.027,112.027,0,0,1-45.526,42.63c-43.706,22.46-202.046,37.823-256.4,28.39-32.592-5.7-55.424-20.265-66.678-41.509-6.025-11.254-12.749-38.1-12.749-38.1s-4.949-45.619,0-66.071c5.044-20.5,12.142-25.121,12.142-25.121s9.478-41.886,23.394-94.648c-4.856,31.237.28,63.317,3.641,89.417,2.335,18.257,19.471,30.725,37.541,37.589l13.823,4.2c10.787,2.475,20.592,2.849,26.288,1.168,17.231-5.044,35.394,4.108,36.422-40.952,1.026-45.1-14.335-99.13,2.941-158.058l56.593,47.816c-1.356,56.546-3.363,123.411-3.363,123.411s-7.1,6.3-16.762,13.728l41.277-12.14v.045c-43.052,24-102.819,50.57-117.108,90.493-14.382,39.878,56.827,50.8,131.957,38.335C373.562,612.087,418.809,597.238,442.949,582.017Z" transform="translate(-49.807 9.212)" fill="#21201f" opacity="0.3"></path><path id="Path_9060" data-name="Path 9060" d="M277.579,521.078c-.932,21.289-1.759,37.763-1.631,45.588,0,0-.023,0-.043.041-2.312,1.442-95.689,60.727-132.266,65.964l-26.568-46.308-7.442,53.878c-.084.636-54.894,10.515-54.894-6.531,0-23.832,4.686-59.73,14.82-103.026,18.4-78.431,54.748-181.1,113.755-280.2h30.4l44.442,40.392C284.98,325.142,280.7,449.922,277.579,521.078Z" transform="translate(-54.736 -65.267)" fill="#7253ec"></path><path id="Path_9061" data-name="Path 9061" d="M275.948,427.624s-.023,0-.043.041c-2.312,1.442-95.689,60.727-132.266,65.964l-26.568-46.308L109.63,501.2c-.084.636-54.894,10.515-54.894-6.531,0-23.832,4.686-59.73,14.82-103.026,23.387.891,110.66,21.818,161.8-9.606h46.222C276.648,403.325,275.821,419.8,275.948,427.624Z" transform="translate(-54.736 73.775)" fill="#5d3ae3"></path><path id="Path_9062" data-name="Path 9062" d="M59.663,423.854a73.826,73.826,0,0,1,1.654-11.239C62.886,406.255,61.7,415.8,59.663,423.854Z" transform="translate(-49.528 103.901)" fill="#7253ec"></path><path id="Path_9063" data-name="Path 9063" d="M141.763,279.39c-22.32,7.736-30.323,36.622-20.15,88.078S165.424,507.9,180.431,516.661s140.942-53.913,162.838-91.135c0,0-7.415-40.97-19.459-50.825,0,0-84.942,33.923-99.955,45.967C223.855,420.668,203.2,258.093,141.763,279.39Z" transform="translate(11.342 -36.749)" fill="#7253ec"></path><path id="Path_9064" data-name="Path 9064" d="M117.424,307.063c3.818,82.323,50.331,170.908,62.827,178.317s29.036-5.439,29.036-5.439" transform="translate(11.522 -5.467)" fill="none" stroke="#533dd3" stroke-linecap="round" stroke-miterlimit="10" stroke-width="1.25"></path><path id="Path_9065" data-name="Path 9065" d="M176.472,347.085c-13.043,9.956-14.388,38.121-14.388,38.121" transform="translate(58.725 36.834)" fill="none" stroke="#533dd3" stroke-linecap="round" stroke-miterlimit="10" stroke-width="1.25"></path><path id="Path_9066" data-name="Path 9066" d="M131.118,242.374c27.746.712,62.243,30.371,68.114,37.208s.274,31.938.274,31.938-49.774-53.495-84.148-49.912C115.358,261.608,123.929,246.249,131.118,242.374Z" transform="translate(9.338 -73.84)" fill="#8f7df4"></path></g><g id="Group_1761" data-name="Group 1761" transform="translate(358.729 390.447)"><g id="Group_1749" data-name="Group 1749" transform="translate(74.725 58.109)"><g id="Group_1748" data-name="Group 1748"><path id="Path_9067" data-name="Path 9067" d="M403.194,571.623h0a8.511,8.511,0,0,0,2.135-11.846L279.442,378.509l-13.979,9.709L391.348,569.486A8.513,8.513,0,0,0,403.194,571.623Z" transform="translate(-265.463 -378.509)" fill="#cc7227"></path></g></g><g id="Group_1751" data-name="Group 1751" transform="translate(57.985 90.73)"><g id="Group_1750" data-name="Group 1750"><path id="Path_9068" data-name="Path 9068" d="M272.162,554.232l133.72-148.473L393.23,394.368,259.512,542.84a8.506,8.506,0,0,0,.629,12.019l0,0A8.51,8.51,0,0,0,272.162,554.232Z" transform="translate(-257.324 -394.368)" fill="#cc7227"></path></g></g><path id="Path_9069" data-name="Path 9069" d="M240.713,381.98s5.439-22.684,11.48-29.632c0,0,150.12,36.7,200.834,60.925l-2.569,16.087-6.113.1,6.218,6.208-4.394,10.857Z" transform="translate(-216.897 -348.051)" fill="#fff"></path><path id="Path_9070" data-name="Path 9070" d="M240.713,381.98s5.439-22.684,11.48-29.632c0,0,150.12,36.7,200.834,60.925l-2.569,16.087-6.113.1,6.218,6.208-4.394,10.857Z" transform="translate(-216.897 -348.051)" fill="#fe965c" opacity="0.2"></path><path id="Path_9071" data-name="Path 9071" d="M233.071,382.179l5.584-16.769,215.592,67.309-3.279,13.87Z" transform="translate(-224.974 -334.245)" fill="#c9362f"></path><path id="Path_9072" data-name="Path 9072" d="M251.284,365.439c11.735-17.533,31.243-15.061,31.243-15.061S450.1,400.008,452.367,399.6c0,0-19.594,1.8-27.942,25.138C421.747,432.22,251.284,365.439,251.284,365.439Z" transform="translate(-205.724 -350.259)" fill="#fff"></path><path id="Path_9073" data-name="Path 9073" d="M235.786,380.635s5.439-22.684,11.478-29.63c0,0,150.122,36.7,200.834,60.923l-2.569,16.085-6.111.1,6.216,6.21-4.392,10.854Z" transform="translate(-222.105 -349.47)" fill="#fff"></path><path id="Path_9074" data-name="Path 9074" d="M375.125,394.46c-17.515-5.712-58.259-17.134-71.584-20.181s-38.459-11.042-38.459-11.042,38.459,13.707,51.025,18.656,34.649,8.378,43.025,12.566,31.986,7.446,31.986,7.446Z" transform="translate(-191.139 -336.54)" fill="#fe965c" opacity="0.2"></path><path id="Path_9075" data-name="Path 9075" d="M327.644,387c-11.042-4.509-30.461-9.84-41.5-12.887s-30.081-8.759-34.269-9.9,15.23,8,20.181,9.52,12.712,4.4,23.871,7.911,39.337,9.223,42,10.748S327.644,387,327.644,387Z" transform="translate(-205.724 -335.613)" fill="#fe965c" opacity="0.2"></path><g id="Group_1754" data-name="Group 1754" transform="translate(34.415 58.109)"><g id="Group_1753" data-name="Group 1753"><g id="Group_1752" data-name="Group 1752"><path id="Path_9076" data-name="Path 9076" d="M383.6,571.623h0a8.513,8.513,0,0,0,2.137-11.846L259.847,378.509l-13.981,9.709L371.753,569.486A8.511,8.511,0,0,0,383.6,571.623Z" transform="translate(-245.866 -378.509)" fill="#e28633"></path></g></g></g><g id="Group_1757" data-name="Group 1757" transform="translate(17.677 90.73)"><g id="Group_1756" data-name="Group 1756"><g id="Group_1755" data-name="Group 1755"><path id="Path_9077" data-name="Path 9077" d="M252.566,554.232,386.284,405.759l-12.65-11.391L239.916,542.84a8.508,8.508,0,0,0,.627,12.019l0,0A8.51,8.51,0,0,0,252.566,554.232Z" transform="translate(-237.728 -394.368)" fill="#e28633"></path></g></g></g><g id="Group_1760" data-name="Group 1760" transform="translate(0 43.637)"><g id="Group_1759" data-name="Group 1759"><g id="Group_1758" data-name="Group 1758"><path id="Path_9078" data-name="Path 9078" d="M458.547,443.892h0A10.639,10.639,0,0,0,451.2,430.76L242.668,371.876a10.639,10.639,0,0,0-13.13,7.345h0a10.638,10.638,0,0,0,7.347,13.132l208.533,58.884A10.637,10.637,0,0,0,458.547,443.892Z" transform="translate(-229.135 -371.473)" fill="#e89b4d"></path></g></g></g></g><g id="Group_1766" data-name="Group 1766" transform="translate(489.741 251.738)"><path id="Path_9079" data-name="Path 9079" d="M519.854,457.351c10.988,40.034,10.988,80.852-29.83,88.7S356.5,539.773,331.816,528s-34.894-62.013-4.281-70.648,94.982-4.708,94.982-4.708l50.237-34.633Z" transform="translate(-276.168 -139.94)" fill="#7a2e18"></path><path id="Path_9080" data-name="Path 9080" d="M485.593,504.692c-2.084,20.078-12.056,35.637-35.68,40.2-23.671,4.566-64.759,1.73-99.908-3.766,11.169-.265,26.728-.71,45.432-2.084,39.847-2.925,71.541-23.048,48.889-41.931-22.649-18.838-81.733-24.733-97.779-46.5,19.858-.088,35.859.887,35.859.887l16.31-11.26,28.193-19.413,1.329-.932c2.438-.4,4.478-.619,6.027-.753a8.4,8.4,0,0,1,1.065-.045l.311.265,44.1,36.836C484.4,473.087,487.056,490.065,485.593,504.692Z" transform="translate(-236.047 -138.788)" fill="#520063" opacity="0.12"></path><path id="Path_9081" data-name="Path 9081" d="M459.219,504.555c-1.24-4.61-6.56-17.509-26.862-19.416-24.821-2.349-31.381-7.047-43.659-27.923l-16.357-17.11-.841-.887,7.936-14.981,21.1-3.546,8.732-1.465,44.1,36.836C458.022,472.95,460.682,489.928,459.219,504.555Z" transform="translate(-209.673 -138.652)" fill="#520063" opacity="0.2" style="mix-blend-mode: multiply;isolation: isolate"></path><path id="Path_9082" data-name="Path 9082" d="M365.147,424.843c-10.513-1.117-20.983-4.754-25.432-9.166s-9.186-6.8-15.861-6.2-8.283,3.215-12.226,4.058.228,5.416,6.743,4.538,8.261-.426,8.261-.426-2.882,4.844-8.289,4.145-13.526-4.429-16.589-4.289-2.939,5.062,2.785,7.238a49.984,49.984,0,0,0,10.7,2.767s-19.053-8.263-21.9-5.352,6.95,8.24,15.464,10.441c0,0-12.329-3.653-13.5-.93s10.178,5.661,15.588,6.36c0,0-9.67-1.337-9.417,1.29s20.66,6.558,28.906,5.286,20.806,1.516,32.952,2.182C375.709,447.471,365.147,424.843,365.147,424.843Z" transform="translate(-292.827 -149.052)" fill="#fec5cb"></path><g id="Group_1762" data-name="Group 1762" transform="translate(137.235 118.111)"><path id="Path_9083" data-name="Path 9083" d="M395.253,343.2,395.9,384.6l-36.351,1.7.61-38.461,30.55-7.592Z" transform="translate(-359.545 -340.245)" fill="#fec5cb"></path><path id="Path_9084" data-name="Path 9084" d="M359.545,376.652c14.082-1.913,32.2-23.418,32.2-23.418l-1.434-10.784-30.55,7.592Z" transform="translate(-359.545 -337.916)" fill="#fec5cb" opacity="0.5" style="mix-blend-mode: multiply;isolation: isolate"></path></g><g id="Group_1765" data-name="Group 1765" transform="translate(80.671)"><g id="Group_1763" data-name="Group 1763" transform="translate(19.786)"><path id="Path_9085" data-name="Path 9085" d="M472.276,386.446C460.435,413.952,415.03,433.2,415.03,433.2l-7.561-72.061L406.08,347.87l-60.567-5.247c-8.37-17.667-1.428-34.834,5.132-38.539,6.557-3.663,9.606,5.749,9.606,5.749s3.624-24.148,16.24-26.58c12.615-2.468,10.571,6.518,10.571,6.518s38.037-7.753,63.807,11.883c16.9,12.885,26.734,31.556,27.66,51.886A74.838,74.838,0,0,1,472.276,386.446Z" transform="translate(-341.665 -282.824)" fill="#602807"></path></g><path id="Path_9086" data-name="Path 9086" d="M438.464,351.378c-11.842,27.505-57.247,46.754-57.247,46.754l-7.561-72.061c3.279-3.663,5.9-6.249,5.9-6.249L397.65,316c11.109,12.809,32.559,6.521,47.065,2.47A74.838,74.838,0,0,1,438.464,351.378Z" transform="translate(-288.067 -247.756)" fill="#491c05"></path><path id="Path_9087" data-name="Path 9087" d="M369.538,304.487A75.035,75.035,0,0,0,341.862,345.6s-8.411-.841-9.672,6.307,6.21,7.407,6.21,7.407-6.354,33.884,15.97,46.806c15.641,9.055,46.711,10.361,73.207-18.3s-4.206-74.083-4.206-74.083Z" transform="translate(-332.046 -259.928)" fill="#fec5cb"></path><path id="Path_9088" data-name="Path 9088" d="M356.024,320.763c-1.115-4.48-7.5-7.771-10.155-5.821s-.016,2.407,2.723,3.143c5.114,1.374,4.682,4,6.226,4.244C355.541,322.439,356.325,321.962,356.024,320.763Z" transform="translate(-318.601 -249.484)" fill="#232f36"></path><path id="Path_9089" data-name="Path 9089" d="M348.093,324.51c-1.078,2.816-3,4.7-4.3,4.2s-1.473-3.18-.4-6,3-4.7,4.3-4.2S349.168,321.694,348.093,324.51Z" transform="translate(-320.793 -245.186)" fill="#232f36"></path><g id="Group_1764" data-name="Group 1764" transform="translate(79.856 87.293)"><path id="Path_9090" data-name="Path 9090" d="M373.379,334.935c8.886-9.974,19.409-12.471,24.233-6.383s4.126,14.9-4.57,25.206-17.178,9.419-20.81,3.092S373.379,334.935,373.379,334.935Z" transform="translate(-370.869 -325.263)" fill="#fec5cb"></path><path id="Path_9091" data-name="Path 9091" d="M374.1,334.527c3.637-5.792,13.469-8.343,17.058.621s-12.6,17.371-17.5,12.757l-.681-6.574s4.344,3.176,4.842-.331-1.711-5.334-4.184-3.914Z" transform="translate(-368.646 -321.016)" fill="#fec5cb" opacity="0.5" style="mix-blend-mode: multiply;isolation: isolate"></path><path id="Path_9092" data-name="Path 9092" d="M374.778,335.2c5.683-8.51,11.718-6.671,13.2-1.923" transform="translate(-366.737 -321.028)" fill="none" stroke="#dd5f78" stroke-linecap="round" stroke-miterlimit="10" stroke-width="1.221"></path><path id="Path_9093" data-name="Path 9093" d="M383.243,329.273c6.7,9.39-2.937,17.83-6.49,15.882s-1.954-5.665-1.954-5.665" transform="translate(-367.093 -321.024)" fill="none" stroke="#dd5f78" stroke-linecap="round" stroke-miterlimit="10" stroke-width="1.221"></path></g><path id="Path_9094" data-name="Path 9094" d="M341.365,337.416l21.481,1.761s-4.4,14.2-21.345,10.982Z" transform="translate(-322.197 -225.124)" fill="#fff"></path><path id="Path_9095" data-name="Path 9095" d="M353.062,329.368c-2.52-.615-4.861.113-5.231,1.627s1.372,3.24,3.89,3.857,4.861-.113,5.231-1.627S355.582,329.985,353.062,329.368Z" transform="translate(-315.414 -233.861)" fill="#fec5cb" opacity="0.5" style="mix-blend-mode: multiply;isolation: isolate"></path><path id="Path_9096" data-name="Path 9096" d="M351.133,306.69c-17.441,32.331,38.86,47.859,39.269,54s-2.863,10.186,0,11.842,27.863-10.706,34.59-18.229,1.386-37.385-25.4-47.61S358.361,293.289,351.133,306.69Z" transform="translate(-315.414 -267.006)" fill="#602807"></path></g><path id="Path_9097" data-name="Path 9097" d="M491.266,529.728S445.3,548.6,432.567,540.8l-10.536-35.984-10.682,28.9c-17.951-1.773-41.443-4.256-50.529-9.929-13.652-8.555-14.273-21.674-14.273-21.674s18.463-104.583,19.037-116.285a148.345,148.345,0,0,1,2.709-21.573c26.9-4.566,45.67-10.141,50.414-6.86,4.786,3.279,6.471,21.674,6.471,21.674S483.333,452.782,491.266,529.728Z" transform="translate(-236.047 -205.048)" fill="#f77a26"></path><path id="Path_9098" data-name="Path 9098" d="M491.266,489.462s-45.964,18.883-58.685,11.083l-10.55-35.992-10.682,28.9c-17.951-1.773-41.443-4.256-50.529-9.929-13.652-8.555-14.273-21.674-14.273-21.674s5.142-29.077,10.106-58.288c23.449-20.919,34.8.956,34.8.956,24.513,35.816,26.275,40.176,50.92,60.433,17.951,14.761,33.952,5.984,44.058-2.837A196.981,196.981,0,0,1,491.266,489.462Z" transform="translate(-236.047 -164.782)" fill="#c9362f" opacity="0.3"></path><path id="Path_9099" data-name="Path 9099" d="M396.021,372.195c12.732-10.9,32.051-6.346,36.472,22.561s6.228,57.1-.668,80.369-24.391,24.663-54.772,24.317a378.767,378.767,0,0,1-57.171-5.282v-33.45s47.544-19.292,58.265-18.587C378.146,442.123,383.817,382.638,396.021,372.195Z" transform="translate(-264.233 -194.097)" fill="#f77a26"></path><path id="Path_9100" data-name="Path 9100" d="M392.322,380.376c10.1,29.079,3.075,85.573-7.732,93.877-14.119,10.848-26.7,10.379-26.7,10.379" transform="translate(-224.063 -179.718)" fill="none" stroke="#ef5425" stroke-linecap="round" stroke-miterlimit="10" stroke-width="1.206"></path><path id="Path_9101" data-name="Path 9101" d="M348.207,403.4c12.21,5.013,19.911,20.17,19.911,20.17" transform="translate(-234.294 -155.378)" fill="none" stroke="#ef5425" stroke-linecap="round" stroke-miterlimit="10" stroke-width="1.206"></path></g></g><g id="Group_1768" data-name="Group 1768" transform="translate(91.99 159.959)" opacity="0.4"><path id="Path_9102" data-name="Path 9102" d="M125.407,220.72c0-1.948-3.509-6.706-4.947-6.706,1.438,0,4.947-4.758,4.947-6.706,0,1.948,3.511,6.706,4.949,6.706C128.918,214.015,125.407,218.772,125.407,220.72Z" transform="translate(1.69 -36.097)" fill="#f3af04"></path><path id="Path_9103" data-name="Path 9103" d="M368.013,137.486c0-1.95-3.511-6.708-4.949-6.708,1.438,0,4.949-4.756,4.949-6.706,0,1.95,3.509,6.706,4.949,6.706C371.522,130.779,368.013,135.536,368.013,137.486Z" transform="translate(258.109 -124.073)" fill="#f3af04"></path><path id="Path_9104" data-name="Path 9104" d="M70.015,188.144c0-3.522-6.342-12.115-8.939-12.115,2.6,0,8.939-8.6,8.939-12.117,0,3.522,6.344,12.117,8.942,12.117C76.359,176.028,70.015,184.622,70.015,188.144Z" transform="translate(-61.076 -81.966)" fill="#f3af04"></path><path id="Path_9105" data-name="Path 9105" d="M442.937,214.507c0-3.521-6.342-12.115-8.939-12.115,2.6,0,8.939-8.6,8.939-12.117,0,3.521,6.344,12.117,8.942,12.117C449.281,202.391,442.937,210.985,442.937,214.507Z" transform="translate(333.083 -54.102)" fill="#f3af04"></path><path id="Path_9106" data-name="Path 9106" d="M139.29,162.351c0-3.522-6.344-12.117-8.94-12.117,2.6,0,8.94-8.594,8.94-12.115,0,3.522,6.342,12.115,8.942,12.115C145.632,150.233,139.29,158.829,139.29,162.351Z" transform="translate(12.144 -109.228)" fill="#f3af04"></path><path id="Path_9107" data-name="Path 9107" d="M331.585,171.321c0-3.522-6.344-12.115-8.942-12.115,2.6,0,8.942-8.6,8.942-12.117,0,3.521,6.342,12.117,8.94,12.117C337.927,159.205,331.585,167.8,331.585,171.321Z" transform="translate(215.387 -99.747)" fill="#f3af04"></path></g><g id="Group_1769" data-name="Group 1769" transform="translate(508.279 248.262)" opacity="0.4"><path id="Path_9108" data-name="Path 9108" d="M326.911,205.614a3.4,3.4,0,1,1-3.4-3.4A3.4,3.4,0,0,1,326.911,205.614Z" transform="translate(-203.587 -129.789)" fill="#fff"></path><path id="Path_9109" data-name="Path 9109" d="M271.679,171.328a3.4,3.4,0,1,1-3.4-3.4A3.4,3.4,0,0,1,271.679,171.328Z" transform="translate(-261.965 -166.027)" fill="#fff"></path><path id="Path_9110" data-name="Path 9110" d="M277.642,208.925a3.4,3.4,0,1,1-3.4-3.4A3.4,3.4,0,0,1,277.642,208.925Z" transform="translate(-255.663 -126.289)" fill="#fff"></path><path id="Path_9111" data-name="Path 9111" d="M266.364,181.8a1.453,1.453,0,1,1-1.452-1.452A1.452,1.452,0,0,1,266.364,181.8Z" transform="translate(-263.458 -152.898)" fill="#fff"></path><path id="Path_9112" data-name="Path 9112" d="M274.688,193.364a1.453,1.453,0,1,1-1.454-1.452A1.454,1.454,0,0,1,274.688,193.364Z" transform="translate(-254.66 -140.673)" fill="#fff"></path><path id="Path_9113" data-name="Path 9113" d="M317.426,216.874a1.453,1.453,0,1,1-1.454-1.452A1.454,1.454,0,0,1,317.426,216.874Z" transform="translate(-209.488 -115.825)" fill="#fff"></path><path id="Path_9114" data-name="Path 9114" d="M276.641,175.454a2.076,2.076,0,1,1-2.075-2.078A2.076,2.076,0,0,1,276.641,175.454Z" transform="translate(-253.914 -160.264)" fill="#fff"></path><path id="Path_9115" data-name="Path 9115" d="M268.316,199.652a2.075,2.075,0,1,1-2.076-2.078A2.075,2.075,0,0,1,268.316,199.652Z" transform="translate(-262.711 -134.689)" fill="#fff"></path><path id="Path_9116" data-name="Path 9116" d="M314.655,169.079A2.075,2.075,0,1,1,312.579,167,2.075,2.075,0,0,1,314.655,169.079Z" transform="translate(-213.733 -167.002)" fill="#fff"></path><path id="Path_9117" data-name="Path 9117" d="M322.237,189.911a2.076,2.076,0,1,1-2.078-2.078A2.077,2.077,0,0,1,322.237,189.911Z" transform="translate(-205.721 -144.985)" fill="#fff"></path><path id="Path_9118" data-name="Path 9118" d="M316.718,198.32a1.452,1.452,0,1,1-1.452-1.452A1.452,1.452,0,0,1,316.718,198.32Z" transform="translate(-210.234 -135.435)" fill="#fff"></path></g></g></svg>